<svg version="1.1" viewBox="0.0 0.0 953.8031496062993 368.8031496062992" fill="none" stroke="none" stroke-linecap="square" stroke-miterlimit="10" xmlns:xlink="http://www.w3.org/1999/xlink" xmlns="http://www.w3.org/2000/svg"><clipPath id="p.0"><path d="m0 0l953.80316 0l0 368.80316l-953.80316 0l0 -368.80316z" clip-rule="nonzero"/></clipPath><g clip-path="url(#p.0)"><path fill="#000000" fill-opacity="0.0" d="m0 0l953.80316 0l0 368.80316l-953.80316 0z" fill-rule="evenodd"/><path fill="#000000" fill-opacity="0.0" d="m377.5013 55.347126l0 0c0 -18.45045 14.957031 -33.407494 33.4075 -33.407494l133.62598 0l0 0c8.860168 0 17.357544 3.5197086 23.62262 9.784828c6.2651367 6.2651215 9.784851 14.762447 9.784851 23.622665l0 251.54723c0 18.45044 -14.957031 33.4075 -33.40747 33.4075l-133.62598 0c-18.45047 0 -33.4075 -14.957062 -33.4075 -33.4075z" fill-rule="evenodd"/><path stroke="#db4437" stroke-width="1.0" stroke-linejoin="round" stroke-linecap="butt" d="m377.5013 55.347126l0 0c0 -18.45045 14.957031 -33.407494 33.4075 -33.407494l133.62598 0l0 0c8.860168 0 17.357544 3.5197086 23.62262 9.784828c6.2651367 6.2651215 9.784851 14.762447 9.784851 23.622665l0 251.54723c0 18.45044 -14.957031 33.4075 -33.40747 33.4075l-133.62598 0c-18.45047 0 -33.4075 -14.957062 -33.4075 -33.4075z" fill-rule="evenodd"/><path fill="#cfe2f3" d="m46.608925 107.90551l120.466774 0l0 63.90954c-60.23339 0 -60.23339 24.350708 -120.466774 10.515091z" fill-rule="evenodd"/><path stroke="#000000" stroke-width="1.0" stroke-linejoin="round" stroke-linecap="butt" d="m46.608925 107.90551l120.466774 0l0 63.90954c-60.23339 0 -60.23339 24.350708 -120.466774 10.515091z" fill-rule="evenodd"/><path fill="#000000" d="m57.046425 135.78027l0 -13.359367l5.046875 0q1.328125 0 2.03125 0.125q0.96875 0.171875 1.640625 0.640625q0.671875 0.453125 1.078125 1.28125q0.40625 0.828125 0.40625 1.828125q0 1.703125 -1.09375 2.8906174q-1.078125 1.171875 -3.921875 1.171875l-3.421875 0l0 5.421875l-1.765625 0zm1.765625 -7.0l3.453125 0q1.71875 0 2.4375 -0.640625q0.71875 -0.6406174 0.71875 -1.7968674q0 -0.84375 -0.421875 -1.4375q-0.421875 -0.59375 -1.125 -0.78125q-0.4375 -0.125 -1.640625 -0.125l-3.421875 0l0 4.7812424zm10.396698 10.71875l-0.1875 -1.53125q0.546875 0.140625 0.9375 0.140625q0.546875 0 0.875 -0.1875q0.328125 -0.171875 0.546875 -0.5q0.15625 -0.25 0.5 -1.21875q0.046875 -0.140625 0.140625 -0.40625l-3.671875 -9.687492l1.765625 0l2.015625 5.5937424q0.390625 1.078125 0.703125 2.25q0.28125 -1.125 0.671875 -2.203125l2.078125 -5.6406174l1.640625 0l-3.6875 9.828117q-0.59375 1.609375 -0.921875 2.203125q-0.4375 0.8125 -1.0 1.1875q-0.5625 0.375 -1.34375 0.375q-0.484375 0 -1.0625 -0.203125zm12.984375 -5.1875l0.234375 1.453125q-0.6875 0.140625 -1.234375 0.140625q-0.890625 0 -1.390625 -0.28125q-0.484375 -0.28125 -0.6875 -0.734375q-0.203125 -0.46875 -0.203125 -1.9375l0 -5.5781174l-1.203125 0l0 -1.265625l1.203125 0l0 -2.390625l1.625 -0.984375l0 3.375l1.65625 0l0 1.265625l-1.65625 0l0 5.6718674q0 0.6875 0.078125 0.890625q0.09375 0.203125 0.28125 0.328125q0.203125 0.109375 0.578125 0.109375q0.265625 0 0.71875 -0.0625zm1.6051788 1.46875l0 -13.359367l1.640625 0l0 4.796875q1.140625 -1.328125 2.890625 -1.328125q1.078125 0 1.859375 0.421875q0.796875 0.421875 1.140625 1.171875q0.34375 0.7499924 0.34375 2.1718674l0 6.125l-1.640625 0l0 -6.125q0 -1.234375 -0.53125 -1.7968674q-0.53125 -0.5625 -1.515625 -0.5625q-0.71875 0 -1.359375 0.390625q-0.640625 0.37499237 -0.921875 1.0156174q-0.265625 0.640625 -0.265625 1.78125l0 5.296875l-1.640625 0zm9.766342 -4.84375q0 -2.6875 1.484375 -3.9687424q1.25 -1.078125 3.046875 -1.078125q2.0 0 3.265625 1.3125q1.265625 1.2968674 1.265625 3.6093674q0 1.859375 -0.5625 2.9375q-0.5625 1.0625 -1.640625 1.65625q-1.0625 0.59375 -2.328125 0.59375q-2.03125 0 -3.28125 -1.296875q-1.25 -1.3125 -1.25 -3.765625zm1.6875 0q0 1.859375 0.796875 2.796875q0.8125 0.921875 2.046875 0.921875q1.21875 0 2.03125 -0.921875q0.8125 -0.9375 0.8125 -2.84375q0 -1.796875 -0.8125 -2.71875q-0.8125 -0.9218674 -2.03125 -0.9218674q-1.234375 0 -2.046875 0.9218674q-0.796875 0.90625 -0.796875 2.765625zm9.297592 4.84375l0 -9.671867l1.46875 0l0 1.375q1.0625 -1.59375 3.078125 -1.59375q0.875 0 1.609375 0.3125q0.734375 0.3125 1.09375 0.828125q0.375 0.5 0.515625 1.2031174q0.09375 0.453125 0.09375 1.59375l0 5.953125l-1.640625 0l0 -5.890625q0 -1.0 -0.203125 -1.484375q-0.1875 -0.49999237 -0.671875 -0.7968674q-0.484375 -0.296875 -1.140625 -0.296875q-1.046875 0 -1.8125 0.671875q-0.75 0.6562424 -0.75 2.5156174l0 5.28125l-1.640625 0z" fill-rule="nonzero"/><path fill="#000000" d="m57.046425 157.78029l0 -13.359375l5.046875 0q1.328125 0 2.03125 0.125q0.96875 0.171875 1.640625 0.640625q0.671875 0.453125 1.078125 1.28125q0.40625 0.828125 0.40625 1.828125q0 1.703125 -1.09375 2.890625q-1.078125 1.171875 -3.921875 1.171875l-3.421875 0l0 5.421875l-1.765625 0zm1.765625 -7.0l3.453125 0q1.71875 0 2.4375 -0.640625q0.71875 -0.640625 0.71875 -1.796875q0 -0.84375 -0.421875 -1.4375q-0.421875 -0.59375 -1.125 -0.78125q-0.4375 -0.125 -1.640625 -0.125l-3.421875 0l0 4.78125zm10.459198 7.0l0 -9.671875l1.46875 0l0 1.46875q0.5625 -1.03125 1.03125 -1.359375q0.484375 -0.328125 1.0625 -0.328125q0.828125 0 1.6875 0.53125l-0.5625 1.515625q-0.609375 -0.359375 -1.203125 -0.359375q-0.546875 0 -0.96875 0.328125q-0.421875 0.328125 -0.609375 0.890625q-0.28125 0.875 -0.28125 1.921875l0 5.0625l-1.625 0zm5.618927 -4.84375q0 -2.6875 1.484375 -3.96875q1.25 -1.078125 3.046875 -1.078125q2.0 0 3.265625 1.3125q1.265625 1.296875 1.265625 3.609375q0 1.859375 -0.5625 2.9375q-0.5625 1.0625 -1.640625 1.65625q-1.0625 0.59375 -2.328125 0.59375q-2.03125 0 -3.28125 -1.296875q-1.25 -1.3125 -1.25 -3.765625zm1.6875 0q0 1.859375 0.796875 2.796875q0.8125 0.921875 2.046875 0.921875q1.21875 0 2.03125 -0.921875q0.8125 -0.9375 0.8125 -2.84375q0 -1.796875 -0.8125 -2.71875q-0.8125 -0.921875 -2.03125 -0.921875q-1.234375 0 -2.046875 0.921875q-0.796875 0.90625 -0.796875 2.765625zm12.875717 3.375l0.234375 1.453125q-0.6875 0.140625 -1.234375 0.140625q-0.890625 0 -1.390625 -0.28125q-0.484375 -0.28125 -0.6875 -0.734375q-0.203125 -0.46875 -0.203125 -1.9375l0 -5.578125l-1.203125 0l0 -1.265625l1.203125 0l0 -2.390625l1.625 -0.984375l0 3.375l1.65625 0l0 1.265625l-1.65625 0l0 5.671875q0 0.6875 0.078125 0.890625q0.09375 0.203125 0.28125 0.328125q0.203125 0.109375 0.578125 0.109375q0.265625 0 0.71875 -0.0625zm0.99580383 -3.375q0 -2.6875 1.484375 -3.96875q1.25 -1.078125 3.046875 -1.078125q2.0 0 3.265625 1.3125q1.265625 1.296875 1.265625 3.609375q0 1.859375 -0.5625 2.9375q-0.5625 1.0625 -1.640625 1.65625q-1.0625 0.59375 -2.328125 0.59375q-2.03125 0 -3.28125 -1.296875q-1.25 -1.3125 -1.25 -3.765625zm1.6875 0q0 1.859375 0.796875 2.796875q0.8125 0.921875 2.046875 0.921875q1.21875 0 2.03125 -0.921875q0.8125 -0.9375 0.8125 -2.84375q0 -1.796875 -0.8125 -2.71875q-0.8125 -0.921875 -2.03125 -0.921875q-1.234375 0 -2.046875 0.921875q-0.796875 0.90625 -0.796875 2.765625zm15.610092 1.296875l1.609375 0.21875q-0.265625 1.65625 -1.359375 2.609375q-1.078125 0.9375 -2.671875 0.9375q-1.984375 0 -3.1875 -1.296875q-1.203125 -1.296875 -1.203125 -3.71875q0 -1.578125 0.515625 -2.75q0.515625 -1.171875 1.578125 -1.75q1.0625 -0.59375 2.3125 -0.59375q1.578125 0 2.578125 0.796875q1.0 0.796875 1.28125 2.265625l-1.59375 0.234375q-0.234375 -0.96875 -0.8125 -1.453125q-0.578125 -0.5 -1.390625 -0.5q-1.234375 0 -2.015625 0.890625q-0.78125 0.890625 -0.78125 2.8125q0 1.953125 0.75 2.84375q0.75 0.875 1.953125 0.875q0.96875 0 1.609375 -0.59375q0.65625 -0.59375 0.828125 -1.828125zm2.40625 -1.296875q0 -2.6875 1.484375 -3.96875q1.25 -1.078125 3.046875 -1.078125q2.0 0 3.265625 1.3125q1.265625 1.296875 1.265625 3.609375q0 1.859375 -0.5625 2.9375q-0.5625 1.0625 -1.640625 1.65625q-1.0625 0.59375 -2.328125 0.59375q-2.03125 0 -3.28125 -1.296875q-1.25 -1.3125 -1.25 -3.765625zm1.6875 0q0 1.859375 0.796875 2.796875q0.8125 0.921875 2.046875 0.921875q1.21875 0 2.03125 -0.921875q0.8125 -0.9375 0.8125 -2.84375q0 -1.796875 -0.8125 -2.71875q-0.8125 -0.921875 -2.03125 -0.921875q-1.234375 0 -2.046875 0.921875q-0.796875 0.90625 -0.796875 2.765625zm9.250717 4.84375l0 -13.359375l1.640625 0l0 13.359375l-1.640625 0z" fill-rule="nonzero"/><path fill="#cfe2f3" d="m46.608925 193.15749l120.466774 0l0 63.90953c-60.23339 0 -60.23339 24.350708 -120.466774 10.515076z" fill-rule="evenodd"/><path stroke="#000000" stroke-width="1.0" stroke-linejoin="round" stroke-linecap="butt" d="m46.608925 193.15749l120.466774 0l0 63.90953c-60.23339 0 -60.23339 24.350708 -120.466774 10.515076z" fill-rule="evenodd"/><path fill="#000000" d="m56.140175 217.23538l1.59375 -0.21875q0.078125 1.53125 0.578125 2.109375q0.515625 0.5625 1.421875 0.5625q0.65625 0 1.140625 -0.296875q0.484375 -0.3125 0.65625 -0.828125q0.1875 -0.53125 0.1875 -1.6875l0 -9.203125l1.765625 0l0 9.109375q0 1.671875 -0.40625 2.59375q-0.40625 0.921875 -1.28125 1.40625q-0.875 0.484375 -2.0625 0.484375q-1.75 0 -2.6875 -1.015625q-0.9375 -1.015625 -0.90625 -3.015625zm9.640625 -0.5l1.65625 -0.140625q0.125 1.0 0.546875 1.640625q0.4375 0.640625 1.34375 1.046875q0.921875 0.390625 2.0625 0.390625q1.0 0 1.78125 -0.296875q0.78125 -0.296875 1.15625 -0.8125q0.375 -0.53125 0.375 -1.15625q0 -0.625 -0.375 -1.09375q-0.359375 -0.46875 -1.1875 -0.796875q-0.546875 -0.203125 -2.390625 -0.640625q-1.828125 -0.453125 -2.5625 -0.84375q-0.96875 -0.5 -1.4375 -1.234375q-0.46875 -0.75 -0.46875 -1.671875q0 -1.0 0.578125 -1.875q0.578125 -0.890625 1.671875 -1.34375q1.109375 -0.453125 2.453125 -0.453125q1.484375 0 2.609375 0.484375q1.140625 0.46875 1.75 1.40625q0.609375 0.921875 0.65625 2.09375l-1.6875 0.125q-0.140625 -1.265625 -0.9375 -1.90625q-0.78125 -0.65625 -2.3125 -0.65625q-1.609375 0 -2.34375 0.59375q-0.734375 0.59375 -0.734375 1.421875q0 0.71875 0.53125 1.171875q0.5 0.46875 2.65625 0.96875q2.15625 0.484375 2.953125 0.84375q1.171875 0.53125 1.71875 1.359375q0.5625 0.828125 0.5625 1.90625q0 1.0625 -0.609375 2.015625q-0.609375 0.9375 -1.75 1.46875q-1.140625 0.515625 -2.578125 0.515625q-1.8125 0 -3.046875 -0.53125q-1.21875 -0.53125 -1.921875 -1.59375q-0.6875 -1.0625 -0.71875 -2.40625zm12.506073 -2.203125q0 -3.328125 1.78125 -5.203125q1.78125 -1.890625 4.609375 -1.890625q1.84375 0 3.328125 0.890625q1.484375 0.875 2.265625 2.46875q0.78125 1.578125 0.78125 3.578125q0 2.03125 -0.828125 3.640625q-0.8125 1.59375 -2.3125 2.421875q-1.5 0.828125 -3.25 0.828125q-1.875 0 -3.359375 -0.90625q-1.484375 -0.921875 -2.25 -2.5q-0.765625 -1.578125 -0.765625 -3.328125zm1.8125 0.015625q0 2.421875 1.296875 3.8125q1.296875 1.390625 3.265625 1.390625q2.0 0 3.28125 -1.40625q1.28125 -1.40625 1.28125 -3.984375q0 -1.625 -0.546875 -2.84375q-0.546875 -1.21875 -1.609375 -1.875q-1.0625 -0.671875 -2.375 -0.671875q-1.890625 0 -3.25 1.296875q-1.34375 1.28125 -1.34375 4.28125zm13.214554 6.484375l0 -13.359375l1.8125 0l7.015625 10.484375l0 -10.484375l1.6875 0l0 13.359375l-1.8125 0l-7.015625 -10.5l0 10.5l-1.6875 0z" fill-rule="nonzero"/><path fill="#000000" d="m57.046425 243.03226l0 -13.359375l5.046875 0q1.328125 0 2.03125 0.125q0.96875 0.171875 1.640625 0.640625q0.671875 0.453125 1.078125 1.28125q0.40625 0.828125 0.40625 1.828125q0 1.703125 -1.09375 2.890625q-1.078125 1.171875 -3.921875 1.171875l-3.421875 0l0 5.421875l-1.765625 0zm1.765625 -7.0l3.453125 0q1.71875 0 2.4375 -0.640625q0.71875 -0.640625 0.71875 -1.796875q0 -0.84375 -0.421875 -1.4375q-0.421875 -0.59375 -1.125 -0.78125q-0.4375 -0.125 -1.640625 -0.125l-3.421875 0l0 4.78125zm10.459198 7.0l0 -9.671875l1.46875 0l0 1.46875q0.5625 -1.03125 1.03125 -1.359375q0.484375 -0.328125 1.0625 -0.328125q0.828125 0 1.6875 0.53125l-0.5625 1.515625q-0.609375 -0.359375 -1.203125 -0.359375q-0.546875 0 -0.96875 0.328125q-0.421875 0.328125 -0.609375 0.890625q-0.28125 0.875 -0.28125 1.921875l0 5.0625l-1.625 0zm5.618927 -4.84375q0 -2.6875 1.484375 -3.96875q1.25 -1.078125 3.046875 -1.078125q2.0 0 3.265625 1.3125q1.265625 1.296875 1.265625 3.609375q0 1.859375 -0.5625 2.9375q-0.5625 1.0625 -1.640625 1.65625q-1.0625 0.59375 -2.328125 0.59375q-2.03125 0 -3.28125 -1.296875q-1.25 -1.3125 -1.25 -3.765625zm1.6875 0q0 1.859375 0.796875 2.796875q0.8125 0.921875 2.046875 0.921875q1.21875 0 2.03125 -0.921875q0.8125 -0.9375 0.8125 -2.84375q0 -1.796875 -0.8125 -2.71875q-0.8125 -0.921875 -2.03125 -0.921875q-1.234375 0 -2.046875 0.921875q-0.796875 0.90625 -0.796875 2.765625zm12.875717 3.375l0.234375 1.453125q-0.6875 0.140625 -1.234375 0.140625q-0.890625 0 -1.390625 -0.28125q-0.484375 -0.28125 -0.6875 -0.734375q-0.203125 -0.46875 -0.203125 -1.9375l0 -5.578125l-1.203125 0l0 -1.265625l1.203125 0l0 -2.390625l1.625 -0.984375l0 3.375l1.65625 0l0 1.265625l-1.65625 0l0 5.671875q0 0.6875 0.078125 0.890625q0.09375 0.203125 0.28125 0.328125q0.203125 0.109375 0.578125 0.109375q0.265625 0 0.71875 -0.0625zm0.99580383 -3.375q0 -2.6875 1.484375 -3.96875q1.25 -1.078125 3.046875 -1.078125q2.0 0 3.265625 1.3125q1.265625 1.296875 1.265625 3.609375q0 1.859375 -0.5625 2.9375q-0.5625 1.0625 -1.640625 1.65625q-1.0625 0.59375 -2.328125 0.59375q-2.03125 0 -3.28125 -1.296875q-1.25 -1.3125 -1.25 -3.765625zm1.6875 0q0 1.859375 0.796875 2.796875q0.8125 0.921875 2.046875 0.921875q1.21875 0 2.03125 -0.921875q0.8125 -0.9375 0.8125 -2.84375q0 -1.796875 -0.8125 -2.71875q-0.8125 -0.921875 -2.03125 -0.921875q-1.234375 0 -2.046875 0.921875q-0.796875 0.90625 -0.796875 2.765625zm15.610092 1.296875l1.609375 0.21875q-0.265625 1.65625 -1.359375 2.609375q-1.078125 0.9375 -2.671875 0.9375q-1.984375 0 -3.1875 -1.296875q-1.203125 -1.296875 -1.203125 -3.71875q0 -1.578125 0.515625 -2.75q0.515625 -1.171875 1.578125 -1.75q1.0625 -0.59375 2.3125 -0.59375q1.578125 0 2.578125 0.796875q1.0 0.796875 1.28125 2.265625l-1.59375 0.234375q-0.234375 -0.96875 -0.8125 -1.453125q-0.578125 -0.5 -1.390625 -0.5q-1.234375 0 -2.015625 0.890625q-0.78125 0.890625 -0.78125 2.8125q0 1.953125 0.75 2.84375q0.75 0.875 1.953125 0.875q0.96875 0 1.609375 -0.59375q0.65625 -0.59375 0.828125 -1.828125zm2.40625 -1.296875q0 -2.6875 1.484375 -3.96875q1.25 -1.078125 3.046875 -1.078125q2.0 0 3.265625 1.3125q1.265625 1.296875 1.265625 3.609375q0 1.859375 -0.5625 2.9375q-0.5625 1.0625 -1.640625 1.65625q-1.0625 0.59375 -2.328125 0.59375q-2.03125 0 -3.28125 -1.296875q-1.25 -1.3125 -1.25 -3.765625zm1.6875 0q0 1.859375 0.796875 2.796875q0.8125 0.921875 2.046875 0.921875q1.21875 0 2.03125 -0.921875q0.8125 -0.9375 0.8125 -2.84375q0 -1.796875 -0.8125 -2.71875q-0.8125 -0.921875 -2.03125 -0.921875q-1.234375 0 -2.046875 0.921875q-0.796875 0.90625 -0.796875 2.765625zm9.250717 4.84375l0 -13.359375l1.640625 0l0 13.359375l-1.640625 0z" fill-rule="nonzero"/><path fill="#cfe2f3" d="m192.0 158.87138l132.50919 0l0 63.013138l-132.50919 0z" fill-rule="evenodd"/><path stroke="#000000" stroke-width="1.0" stroke-linejoin="round" stroke-linecap="butt" d="m192.0 158.87138l132.50919 0l0 63.013138l-132.50919 0z" fill-rule="evenodd"/><path fill="#000000" d="m201.90625 179.79794q0 -3.328125 1.78125 -5.203125q1.78125 -1.890625 4.609375 -1.890625q1.84375 0 3.328125 0.890625q1.484375 0.875 2.265625 2.46875q0.78125 1.578125 0.78125 3.578125q0 2.03125 -0.828125 3.640625q-0.8125 1.59375 -2.3125 2.421875q-1.5 0.828125 -3.25 0.828125q-1.875 0 -3.359375 -0.90625q-1.484375 -0.921875 -2.25 -2.5q-0.765625 -1.578125 -0.765625 -3.328125zm1.8125 0.015625q0 2.421875 1.296875 3.8125q1.296875 1.390625 3.265625 1.390625q2.0 0 3.28125 -1.40625q1.28125 -1.40625 1.28125 -3.984375q0 -1.625 -0.546875 -2.84375q-0.546875 -1.21875 -1.609375 -1.875q-1.0625 -0.671875 -2.375 -0.671875q-1.890625 0 -3.25 1.296875q-1.34375 1.28125 -1.34375 4.28125zm13.027054 10.1875l0 -13.375l1.484375 0l0 1.25q0.53125 -0.734375 1.1875 -1.09375q0.671875 -0.375 1.625 -0.375q1.234375 0 2.171875 0.640625q0.953125 0.625 1.4375 1.796875q0.484375 1.15625 0.484375 2.546875q0 1.484375 -0.53125 2.671875q-0.53125 1.1875 -1.546875 1.828125q-1.015625 0.625 -2.140625 0.625q-0.8125 0 -1.46875 -0.34375q-0.65625 -0.34375 -1.0625 -0.875l0 4.703125l-1.640625 0zm1.484375 -8.484375q0 1.859375 0.75 2.765625q0.765625 0.890625 1.828125 0.890625q1.09375 0 1.875 -0.921875q0.78125 -0.9375 0.78125 -2.875q0 -1.84375 -0.765625 -2.765625q-0.75 -0.921875 -1.8125 -0.921875q-1.046875 0 -1.859375 0.984375q-0.796875 0.96875 -0.796875 2.84375zm15.516342 1.671875l1.6875 0.203125q-0.40625 1.484375 -1.484375 2.3125q-1.078125 0.8125 -2.765625 0.8125q-2.125 0 -3.375 -1.296875q-1.234375 -1.3125 -1.234375 -3.671875q0 -2.453125 1.25 -3.796875q1.265625 -1.34375 3.265625 -1.34375q1.9375 0 3.15625 1.328125q1.234375 1.3125 1.234375 3.703125q0 0.15625 0 0.4375l-7.21875 0q0.09375 1.59375 0.90625 2.453125q0.8125 0.84375 2.015625 0.84375q0.90625 0 1.546875 -0.46875q0.640625 -0.484375 1.015625 -1.515625zm-5.390625 -2.65625l5.40625 0q-0.109375 -1.21875 -0.625 -1.828125q-0.78125 -0.953125 -2.03125 -0.953125q-1.125 0 -1.90625 0.765625q-0.765625 0.75 -0.84375 2.015625zm9.141342 5.765625l0 -9.671875l1.46875 0l0 1.375q1.0625 -1.59375 3.078125 -1.59375q0.875 0 1.609375 0.3125q0.734375 0.3125 1.09375 0.828125q0.375 0.5 0.515625 1.203125q0.09375 0.453125 0.09375 1.59375l0 5.953125l-1.640625 0l0 -5.890625q0 -1.0 -0.203125 -1.484375q-0.1875 -0.5 -0.671875 -0.796875q-0.484375 -0.296875 -1.140625 -0.296875q-1.046875 0 -1.8125 0.671875q-0.75 0.65625 -0.75 2.515625l0 5.28125l-1.640625 0zm13.953842 -1.46875l0.234375 1.453125q-0.6875 0.140625 -1.234375 0.140625q-0.890625 0 -1.390625 -0.28125q-0.484375 -0.28125 -0.6875 -0.734375q-0.203125 -0.46875 -0.203125 -1.9375l0 -5.578125l-1.203125 0l0 -1.265625l1.203125 0l0 -2.390625l1.625 -0.984375l0 3.375l1.65625 0l0 1.265625l-1.65625 0l0 5.671875q0 0.6875 0.078125 0.890625q0.09375 0.203125 0.28125 0.328125q0.203125 0.109375 0.578125 0.109375q0.265625 0 0.71875 -0.0625zm1.5895538 1.46875l0 -9.671875l1.46875 0l0 1.46875q0.5625 -1.03125 1.03125 -1.359375q0.48439026 -0.328125 1.0625153 -0.328125q0.828125 0 1.6875 0.53125l-0.5625 1.515625q-0.609375 -0.359375 -1.203125 -0.359375q-0.54689026 0 -0.96876526 0.328125q-0.421875 0.328125 -0.609375 0.890625q-0.28125 0.875 -0.28125 1.921875l0 5.0625l-1.625 0zm5.6189117 -4.84375q0 -2.6875 1.484375 -3.96875q1.25 -1.078125 3.046875 -1.078125q2.0 0 3.265625 1.3125q1.265625 1.296875 1.265625 3.609375q0 1.859375 -0.5625 2.9375q-0.5625 1.0625 -1.640625 1.65625q-1.0625 0.59375 -2.328125 0.59375q-2.03125 0 -3.28125 -1.296875q-1.25 -1.3125 -1.25 -3.765625zm1.6875 0q0 1.859375 0.796875 2.796875q0.8125 0.921875 2.046875 0.921875q1.21875 0 2.03125 -0.921875q0.8125 -0.9375 0.8125 -2.84375q0 -1.796875 -0.8125 -2.71875q-0.8125 -0.921875 -2.03125 -0.921875q-1.234375 0 -2.046875 0.921875q-0.796875 0.90625 -0.796875 2.765625zm9.297607 4.84375l0 -9.671875l1.46875 0l0 1.375q1.0625 -1.59375 3.078125 -1.59375q0.875 0 1.609375 0.3125q0.734375 0.3125 1.09375 0.828125q0.375 0.5 0.515625 1.203125q0.09375 0.453125 0.09375 1.59375l0 5.953125l-1.640625 0l0 -5.890625q0 -1.0 -0.203125 -1.484375q-0.1875 -0.5 -0.671875 -0.796875q-0.484375 -0.296875 -1.140625 -0.296875q-1.046875 0 -1.8125 0.671875q-0.75 0.65625 -0.75 2.515625l0 5.28125l-1.640625 0zm9.719482 -2.890625l1.625 -0.25q0.125 0.96875 0.75 1.5q0.625 0.515625 1.75 0.515625q1.125 0 1.671875 -0.453125q0.546875 -0.46875 0.546875 -1.09375q0 -0.546875 -0.484375 -0.875q-0.328125 -0.21875 -1.671875 -0.546875q-1.8125 -0.46875 -2.515625 -0.796875q-0.6875 -0.328125 -1.046875 -0.90625q-0.359375 -0.59375 -0.359375 -1.3125q0 -0.640625 0.296875 -1.1875q0.296875 -0.5625 0.8125 -0.921875q0.375 -0.28125 1.03125 -0.46875q0.671875 -0.203125 1.421875 -0.203125q1.140625 0 2.0 0.328125q0.859375 0.328125 1.265625 0.890625q0.421875 0.5625 0.578125 1.5l-1.609375 0.21875q-0.109375 -0.75 -0.640625 -1.171875q-0.515625 -0.421875 -1.46875 -0.421875q-1.140625 0 -1.625 0.375q-0.46875 0.375 -0.46875 0.875q0 0.3125 0.1875 0.578125q0.203125 0.265625 0.640625 0.4375q0.234375 0.09375 1.4375 0.421875q1.75 0.453125 2.4375 0.75q0.6875 0.296875 1.078125 0.859375q0.390625 0.5625 0.390625 1.40625q0 0.828125 -0.484375 1.546875q-0.46875 0.71875 -1.375 1.125q-0.90625 0.390625 -2.046875 0.390625q-1.875 0 -2.875 -0.78125q-0.984375 -0.78125 -1.25 -2.328125z" fill-rule="nonzero"/><path fill="#000000" d="m200.96875 208.29794l5.125 -13.359375l1.90625 0l5.46875 13.359375l-2.015625 0l-1.546875 -4.046875l-5.59375 0l-1.46875 4.046875l-1.875 0zm3.859375 -5.484375l4.53125 0l-1.40625 -3.703125q-0.625 -1.6875 -0.9375 -2.765625q-0.265625 1.28125 -0.71875 2.546875l-1.46875 3.921875zm9.849823 9.1875l0 -13.375l1.484375 0l0 1.25q0.53125 -0.734375 1.1875 -1.09375q0.671875 -0.375 1.625 -0.375q1.234375 0 2.171875 0.640625q0.953125 0.625 1.4375 1.796875q0.484375 1.15625 0.484375 2.546875q0 1.484375 -0.53125 2.671875q-0.53125 1.1875 -1.546875 1.828125q-1.015625 0.625 -2.140625 0.625q-0.8125 0 -1.46875 -0.34375q-0.65625 -0.34375 -1.0625 -0.875l0 4.703125l-1.640625 0zm1.484375 -8.484375q0 1.859375 0.75 2.765625q0.765625 0.890625 1.828125 0.890625q1.09375 0 1.875 -0.921875q0.78125 -0.9375 0.78125 -2.875q0 -1.84375 -0.765625 -2.765625q-0.75 -0.921875 -1.8125 -0.921875q-1.046875 0 -1.859375 0.984375q-0.796875 0.96875 -0.796875 2.84375zm8.891342 8.484375l0 -13.375l1.484375 0l0 1.25q0.53125 -0.734375 1.1875 -1.09375q0.671875 -0.375 1.625 -0.375q1.234375 0 2.171875 0.640625q0.953125 0.625 1.4375 1.796875q0.484375 1.15625 0.484375 2.546875q0 1.484375 -0.53125 2.671875q-0.53125 1.1875 -1.546875 1.828125q-1.015625 0.625 -2.140625 0.625q-0.8125 0 -1.46875 -0.34375q-0.65625 -0.34375 -1.0625 -0.875l0 4.703125l-1.640625 0zm1.484375 -8.484375q0 1.859375 0.75 2.765625q0.765625 0.890625 1.828125 0.890625q1.09375 0 1.875 -0.921875q0.78125 -0.9375 0.78125 -2.875q0 -1.84375 -0.765625 -2.765625q-0.75 -0.921875 -1.8125 -0.921875q-1.046875 0 -1.859375 0.984375q-0.796875 0.96875 -0.796875 2.84375z" fill-rule="nonzero"/><path fill="#cfe2f3" d="m407.50656 158.87138l132.50919 0l0 63.013138l-132.50919 0z" fill-rule="evenodd"/><path stroke="#000000" stroke-width="1.0" stroke-linejoin="round" stroke-linecap="butt" d="m407.50656 158.87138l132.50919 0l0 63.013138l-132.50919 0z" fill-rule="evenodd"/><path fill="#000000" d="m417.4128 179.79794q0 -3.328125 1.78125 -5.203125q1.78125 -1.890625 4.609375 -1.890625q1.84375 0 3.328125 0.890625q1.484375 0.875 2.265625 2.46875q0.78125 1.578125 0.78125 3.578125q0 2.03125 -0.828125 3.640625q-0.8125 1.59375 -2.3125 2.421875q-1.5 0.828125 -3.25 0.828125q-1.875 0 -3.359375 -0.90625q-1.484375 -0.921875 -2.25 -2.5q-0.765625 -1.578125 -0.765625 -3.328125zm1.8125 0.015625q0 2.421875 1.296875 3.8125q1.296875 1.390625 3.265625 1.390625q2.0 0 3.28125 -1.40625q1.28125 -1.40625 1.28125 -3.984375q0 -1.625 -0.546875 -2.84375q-0.546875 -1.21875 -1.609375 -1.875q-1.0625 -0.671875 -2.375 -0.671875q-1.890625 0 -3.25 1.296875q-1.34375 1.28125 -1.34375 4.28125zm13.027069 10.1875l0 -13.375l1.484375 0l0 1.25q0.53125 -0.734375 1.1875 -1.09375q0.671875 -0.375 1.625 -0.375q1.234375 0 2.171875 0.640625q0.953125 0.625 1.4375 1.796875q0.484375 1.15625 0.484375 2.546875q0 1.484375 -0.53125 2.671875q-0.53125 1.1875 -1.546875 1.828125q-1.015625 0.625 -2.140625 0.625q-0.8125 0 -1.46875 -0.34375q-0.65625 -0.34375 -1.0625 -0.875l0 4.703125l-1.640625 0zm1.484375 -8.484375q0 1.859375 0.75 2.765625q0.765625 0.890625 1.828125 0.890625q1.09375 0 1.875 -0.921875q0.78125 -0.9375 0.78125 -2.875q0 -1.84375 -0.765625 -2.765625q-0.75 -0.921875 -1.8125 -0.921875q-1.046875 0 -1.859375 0.984375q-0.796875 0.96875 -0.796875 2.84375zm15.516327 1.671875l1.6875 0.203125q-0.40625 1.484375 -1.484375 2.3125q-1.078125 0.8125 -2.765625 0.8125q-2.125 0 -3.375 -1.296875q-1.234375 -1.3125 -1.234375 -3.671875q0 -2.453125 1.25 -3.796875q1.265625 -1.34375 3.265625 -1.34375q1.9375 0 3.15625 1.328125q1.234375 1.3125 1.234375 3.703125q0 0.15625 0 0.4375l-7.21875 0q0.09375 1.59375 0.90625 2.453125q0.8125 0.84375 2.015625 0.84375q0.90625 0 1.546875 -0.46875q0.640625 -0.484375 1.015625 -1.515625zm-5.390625 -2.65625l5.40625 0q-0.109375 -1.21875 -0.625 -1.828125q-0.78125 -0.953125 -2.03125 -0.953125q-1.125 0 -1.90625 0.765625q-0.765625 0.75 -0.84375 2.015625zm9.141357 5.765625l0 -9.671875l1.46875 0l0 1.375q1.0625 -1.59375 3.078125 -1.59375q0.875 0 1.609375 0.3125q0.734375 0.3125 1.09375 0.828125q0.375 0.5 0.515625 1.203125q0.09375 0.453125 0.09375 1.59375l0 5.953125l-1.640625 0l0 -5.890625q0 -1.0 -0.203125 -1.484375q-0.1875 -0.5 -0.671875 -0.796875q-0.484375 -0.296875 -1.140625 -0.296875q-1.046875 0 -1.8125 0.671875q-0.75 0.65625 -0.75 2.515625l0 5.28125l-1.640625 0zm13.953827 -1.46875l0.234375 1.453125q-0.6875 0.140625 -1.234375 0.140625q-0.890625 0 -1.390625 -0.28125q-0.484375 -0.28125 -0.6875 -0.734375q-0.203125 -0.46875 -0.203125 -1.9375l0 -5.578125l-1.203125 0l0 -1.265625l1.203125 0l0 -2.390625l1.625 -0.984375l0 3.375l1.65625 0l0 1.265625l-1.65625 0l0 5.671875q0 0.6875 0.078125 0.890625q0.09375 0.203125 0.28125 0.328125q0.203125 0.109375 0.578125 0.109375q0.265625 0 0.71875 -0.0625zm1.5895691 1.46875l0 -9.671875l1.46875 0l0 1.46875q0.5625 -1.03125 1.03125 -1.359375q0.484375 -0.328125 1.0625 -0.328125q0.828125 0 1.6875 0.53125l-0.5625 1.515625q-0.609375 -0.359375 -1.203125 -0.359375q-0.546875 0 -0.96875 0.328125q-0.421875 0.328125 -0.609375 0.890625q-0.28125 0.875 -0.28125 1.921875l0 5.0625l-1.625 0zm5.618927 -4.84375q0 -2.6875 1.484375 -3.96875q1.25 -1.078125 3.046875 -1.078125q2.0 0 3.265625 1.3125q1.265625 1.296875 1.265625 3.609375q0 1.859375 -0.5625 2.9375q-0.5625 1.0625 -1.640625 1.65625q-1.0625 0.59375 -2.328125 0.59375q-2.03125 0 -3.28125 -1.296875q-1.25 -1.3125 -1.25 -3.765625zm1.6875 0q0 1.859375 0.796875 2.796875q0.8125 0.921875 2.046875 0.921875q1.21875 0 2.03125 -0.921875q0.8125 -0.9375 0.8125 -2.84375q0 -1.796875 -0.8125 -2.71875q-0.8125 -0.921875 -2.03125 -0.921875q-1.234375 0 -2.046875 0.921875q-0.796875 0.90625 -0.796875 2.765625zm9.297577 4.84375l0 -9.671875l1.46875 0l0 1.375q1.0625 -1.59375 3.078125 -1.59375q0.875 0 1.609375 0.3125q0.734375 0.3125 1.09375 0.828125q0.375 0.5 0.515625 1.203125q0.09375 0.453125 0.09375 1.59375l0 5.953125l-1.640625 0l0 -5.890625q0 -1.0 -0.203125 -1.484375q-0.1875 -0.5 -0.671875 -0.796875q-0.484375 -0.296875 -1.140625 -0.296875q-1.046875 0 -1.8125 0.671875q-0.75 0.65625 -0.75 2.515625l0 5.28125l-1.640625 0zm9.719482 -2.890625l1.625 -0.25q0.125 0.96875 0.75 1.5q0.625 0.515625 1.75 0.515625q1.125 0 1.671875 -0.453125q0.546875 -0.46875 0.546875 -1.09375q0 -0.546875 -0.484375 -0.875q-0.328125 -0.21875 -1.671875 -0.546875q-1.8125 -0.46875 -2.515625 -0.796875q-0.6875 -0.328125 -1.046875 -0.90625q-0.359375 -0.59375 -0.359375 -1.3125q0 -0.640625 0.296875 -1.1875q0.296875 -0.5625 0.8125 -0.921875q0.375 -0.28125 1.03125 -0.46875q0.671875 -0.203125 1.421875 -0.203125q1.140625 0 2.0 0.328125q0.859375 0.328125 1.265625 0.890625q0.421875 0.5625 0.578125 1.5l-1.609375 0.21875q-0.109375 -0.75 -0.640625 -1.171875q-0.515625 -0.421875 -1.46875 -0.421875q-1.140625 0 -1.625 0.375q-0.46875 0.375 -0.46875 0.875q0 0.3125 0.1875 0.578125q0.203125 0.265625 0.640625 0.4375q0.234375 0.09375 1.4375 0.421875q1.75 0.453125 2.4375 0.75q0.6875 0.296875 1.078125 0.859375q0.390625 0.5625 0.390625 1.40625q0 0.828125 -0.484375 1.546875q-0.46875 0.71875 -1.375 1.125q-0.90625 0.390625 -2.046875 0.390625q-1.875 0 -2.875 -0.78125q-0.984375 -0.78125 -1.25 -2.328125z" fill-rule="nonzero"/><path fill="#000000" d="m416.4753 208.29794l5.125 -13.359375l1.90625 0l5.46875 13.359375l-2.015625 0l-1.546875 -4.046875l-5.59375 0l-1.46875 4.046875l-1.875 0zm3.859375 -5.484375l4.53125 0l-1.40625 -3.703125q-0.625 -1.6875 -0.9375 -2.765625q-0.265625 1.28125 -0.71875 2.546875l-1.46875 3.921875zm10.052948 5.484375l0 -13.359375l5.046875 0q1.328125 0 2.03125 0.125q0.96875 0.171875 1.640625 0.640625q0.671875 0.453125 1.078125 1.28125q0.40625 0.828125 0.40625 1.828125q0 1.703125 -1.09375 2.890625q-1.078125 1.171875 -3.921875 1.171875l-3.421875 0l0 5.421875l-1.765625 0zm1.765625 -7.0l3.453125 0q1.71875 0 2.4375 -0.640625q0.71875 -0.640625 0.71875 -1.796875q0 -0.84375 -0.421875 -1.4375q-0.421875 -0.59375 -1.125 -0.78125q-0.4375 -0.125 -1.640625 -0.125l-3.421875 0l0 4.78125zm10.974823 7.0l0 -13.359375l1.765625 0l0 13.359375l-1.765625 0z" fill-rule="nonzero"/><path fill="#cfe2f3" d="m425.36725 74.88976l96.78613 0l0 0c12.67926 0 22.957825 14.104935 22.957825 31.50425c0 17.399323 -10.278564 31.504257 -22.957825 31.504257l-96.78613 0l0 0c-12.67923 0 -22.957794 -14.104935 -22.957794 -31.504257c0 -17.399315 10.278564 -31.50425 22.957794 -31.50425z" fill-rule="evenodd"/><path stroke="#000000" stroke-width="1.0" stroke-linejoin="round" stroke-linecap="butt" d="m425.36725 74.88976l96.78613 0l0 0c12.67926 0 22.957825 14.104935 22.957825 31.50425c0 17.399323 -10.278564 31.504257 -22.957825 31.504257l-96.78613 0l0 0c-12.67923 0 -22.957794 -14.104935 -22.957794 -31.504257c0 -17.399315 10.278564 -31.50425 22.957794 -31.50425z" fill-rule="evenodd"/><path fill="#000000" d="m425.82242 108.079636l0 -1.578125l5.65625 0l0 4.953125q-1.296875 1.046875 -2.6875 1.578125q-1.375 0.515625 -2.84375 0.515625q-1.96875 0 -3.578125 -0.84375q-1.609375 -0.84375 -2.421875 -2.4375q-0.8125 -1.59375 -0.8125 -3.5625q0 -1.953125 0.8125 -3.640625q0.8125 -1.6875 2.34375 -2.5q1.53125 -0.828125 3.515625 -0.828125q1.453125 0 2.625 0.46875q1.171875 0.46875 1.828125 1.3125q0.671875 0.828125 1.015625 2.171875l-1.59375 0.4375q-0.296875 -1.015625 -0.75 -1.59375q-0.4375 -0.59375 -1.265625 -0.9375q-0.828125 -0.34375 -1.84375 -0.34375q-1.203125 0 -2.09375 0.375q-0.890625 0.359375 -1.4375 0.96875q-0.53125 0.59375 -0.828125 1.3125q-0.515625 1.234375 -0.515625 2.6875q0 1.78125 0.609375 2.984375q0.625 1.203125 1.796875 1.796875q1.171875 0.578125 2.5 0.578125q1.140625 0 2.234375 -0.4375q1.09375 -0.453125 1.65625 -0.953125l0 -2.484375l-3.921875 0zm8.261444 5.234375l0 -13.359375l5.046875 0q1.328125 0 2.03125 0.125q0.96875 0.171875 1.640625 0.640625q0.671875 0.453125 1.078125 1.28125q0.40625 0.828125 0.40625 1.828125q0 1.703125 -1.09375 2.890625q-1.078125 1.171875 -3.921875 1.171875l-3.421875 0l0 5.421875l-1.765625 0zm1.765625 -7.0l3.453125 0q1.71875 0 2.4375 -0.640625q0.71875 -0.640625 0.71875 -1.796875q0 -0.84375 -0.421875 -1.4375q-0.421875 -0.59375 -1.125 -0.78125q-0.4375 -0.125 -1.640625 -0.125l-3.421875 0l0 4.78125zm10.974823 7.0l0 -13.359375l1.765625 0l0 13.359375l-1.765625 0zm4.3551636 -6.5q0 -3.328125 1.78125 -5.203125q1.78125 -1.890625 4.609375 -1.890625q1.84375 0 3.328125 0.890625q1.484375 0.875 2.265625 2.46875q0.78125 1.578125 0.78125 3.578125q0 2.03125 -0.828125 3.640625q-0.8125 1.59375 -2.3125 2.421875q-1.5 0.828125 -3.25 0.828125q-1.875 0 -3.359375 -0.90625q-1.484375 -0.921875 -2.25 -2.5q-0.765625 -1.578125 -0.765625 -3.328125zm1.8125 0.015625q0 2.421875 1.296875 3.8125q1.296875 1.390625 3.265625 1.390625q2.0 0 3.28125 -1.40625q1.28125 -1.40625 1.28125 -3.984375q0 -1.625 -0.546875 -2.84375q-0.546875 -1.21875 -1.609375 -1.875q-1.0625 -0.671875 -2.375 -0.671875q-1.890625 0 -3.25 1.296875q-1.34375 1.28125 -1.34375 4.28125z" fill-rule="nonzero"/><path fill="#cfe2f3" d="m635.1599 158.87401l96.78613 0l0 0c12.679199 0 22.957764 14.104935 22.957764 31.504257c0 17.399323 -10.278564 31.504257 -22.957764 31.504257l-96.78613 0l0 0c-12.67926 0 -22.957825 -14.104935 -22.957825 -31.504257c0 -17.399323 10.278564 -31.504257 22.957825 -31.504257z" fill-rule="evenodd"/><path stroke="#000000" stroke-width="1.0" stroke-linejoin="round" stroke-linecap="butt" d="m635.1599 158.87401l96.78613 0l0 0c12.679199 0 22.957764 14.104935 22.957764 31.504257c0 17.399323 -10.278564 31.504257 -22.957764 31.504257l-96.78613 0l0 0c-12.67926 0 -22.957825 -14.104935 -22.957825 -31.504257c0 -17.399323 10.278564 -31.504257 22.957825 -31.504257z" fill-rule="evenodd"/><path fill="#000000" d="m629.3182 186.29826l0 -13.359375l2.65625 0l3.15625 9.453125q0.4375 1.328125 0.640625 1.984375q0.234375 -0.734375 0.703125 -2.140625l3.203125 -9.296875l2.375 0l0 13.359375l-1.703125 0l0 -11.171875l-3.875 11.171875l-1.59375 0l-3.859375 -11.375l0 11.375l-1.703125 0zm14.7752075 -4.84375q0 -2.6875 1.484375 -3.96875q1.25 -1.078125 3.046875 -1.078125q2.0 0 3.265625 1.3125q1.265625 1.296875 1.265625 3.609375q0 1.859375 -0.5625 2.9375q-0.5625 1.0625 -1.640625 1.65625q-1.0625 0.59375 -2.328125 0.59375q-2.03125 0 -3.28125 -1.296875q-1.25 -1.3125 -1.25 -3.765625zm1.6875 0q0 1.859375 0.796875 2.796875q0.8125 0.921875 2.046875 0.921875q1.21875 0 2.03125 -0.921875q0.8125 -0.9375 0.8125 -2.84375q0 -1.796875 -0.8125 -2.71875q-0.8125 -0.921875 -2.03125 -0.921875q-1.234375 0 -2.046875 0.921875q-0.796875 0.90625 -0.796875 2.765625zm12.875732 3.375l0.234375 1.453125q-0.6875 0.140625 -1.234375 0.140625q-0.890625 0 -1.390625 -0.28125q-0.484375 -0.28125 -0.6875 -0.734375q-0.203125 -0.46875 -0.203125 -1.9375l0 -5.578125l-1.203125 0l0 -1.265625l1.203125 0l0 -2.390625l1.625 -0.984375l0 3.375l1.65625 0l0 1.265625l-1.65625 0l0 5.671875q0 0.6875 0.078125 0.890625q0.09375 0.203125 0.28125 0.328125q0.203125 0.109375 0.578125 0.109375q0.265625 0 0.71875 -0.0625zm0.9957886 -3.375q0 -2.6875 1.484375 -3.96875q1.25 -1.078125 3.046875 -1.078125q2.0 0 3.265625 1.3125q1.265625 1.296875 1.265625 3.609375q0 1.859375 -0.5625 2.9375q-0.5625 1.0625 -1.640625 1.65625q-1.0625 0.59375 -2.328125 0.59375q-2.03125 0 -3.28125 -1.296875q-1.25 -1.3125 -1.25 -3.765625zm1.6875 0q0 1.859375 0.796875 2.796875q0.8125 0.921875 2.046875 0.921875q1.21875 0 2.03125 -0.921875q0.8125 -0.9375 0.8125 -2.84375q0 -1.796875 -0.8125 -2.71875q-0.8125 -0.921875 -2.03125 -0.921875q-1.234375 0 -2.046875 0.921875q-0.796875 0.90625 -0.796875 2.765625zm9.281982 4.84375l0 -9.671875l1.46875 0l0 1.46875q0.5625 -1.03125 1.03125 -1.359375q0.484375 -0.328125 1.0625 -0.328125q0.828125 0 1.6875 0.53125l-0.5625 1.515625q-0.609375 -0.359375 -1.203125 -0.359375q-0.546875 0 -0.96875 0.328125q-0.421875 0.328125 -0.609375 0.890625q-0.28125 0.875 -0.28125 1.921875l0 5.0625l-1.625 0z" fill-rule="nonzero"/><path fill="#000000" d="m638.8963 203.61076l1.765625 0.453125q-0.5625 2.171875 -2.0 3.328125q-1.4375 1.140625 -3.53125 1.140625q-2.15625 0 -3.515625 -0.875q-1.34375 -0.890625 -2.0625 -2.546875q-0.703125 -1.671875 -0.703125 -3.59375q0 -2.078125 0.796875 -3.625q0.796875 -1.5625 2.265625 -2.359375q1.484375 -0.8125 3.25 -0.8125q2.0 0 3.359375 1.015625q1.375 1.015625 1.90625 2.875l-1.734375 0.40625q-0.46875 -1.453125 -1.359375 -2.109375q-0.875 -0.671875 -2.203125 -0.671875q-1.546875 0 -2.578125 0.734375q-1.03125 0.734375 -1.453125 1.984375q-0.421875 1.234375 -0.421875 2.5625q0 1.703125 0.5 2.96875q0.5 1.265625 1.546875 1.90625q1.046875 0.625 2.265625 0.625q1.484375 0 2.515625 -0.859375q1.03125 -0.859375 1.390625 -2.546875zm3.1292114 -0.15625q0 -2.6875 1.484375 -3.96875q1.25 -1.078125 3.046875 -1.078125q2.0 0 3.265625 1.3125q1.265625 1.296875 1.265625 3.609375q0 1.859375 -0.5625 2.9375q-0.5625 1.0625 -1.640625 1.65625q-1.0625 0.59375 -2.328125 0.59375q-2.03125 0 -3.28125 -1.296875q-1.25 -1.3125 -1.25 -3.765625zm1.6875 0q0 1.859375 0.796875 2.796875q0.8125 0.921875 2.046875 0.921875q1.21875 0 2.03125 -0.921875q0.8125 -0.9375 0.8125 -2.84375q0 -1.796875 -0.8125 -2.71875q-0.8125 -0.921875 -2.03125 -0.921875q-1.234375 0 -2.046875 0.921875q-0.796875 0.90625 -0.796875 2.765625zm9.297607 4.84375l0 -9.671875l1.46875 0l0 1.375q1.0625 -1.59375 3.078125 -1.59375q0.875 0 1.609375 0.3125q0.734375 0.3125 1.09375 0.828125q0.375 0.5 0.515625 1.203125q0.09375 0.453125 0.09375 1.59375l0 5.953125l-1.640625 0l0 -5.890625q0 -1.0 -0.203125 -1.484375q-0.1875 -0.5 -0.671875 -0.796875q-0.484375 -0.296875 -1.140625 -0.296875q-1.046875 0 -1.8125 0.671875q-0.75 0.65625 -0.75 2.515625l0 5.28125l-1.640625 0zm13.953857 -1.46875l0.234375 1.453125q-0.6875 0.140625 -1.234375 0.140625q-0.890625 0 -1.390625 -0.28125q-0.484375 -0.28125 -0.6875 -0.734375q-0.203125 -0.46875 -0.203125 -1.9375l0 -5.578125l-1.203125 0l0 -1.265625l1.203125 0l0 -2.390625l1.625 -0.984375l0 3.375l1.65625 0l0 1.265625l-1.65625 0l0 5.671875q0 0.6875 0.078125 0.890625q0.09375 0.203125 0.28125 0.328125q0.203125 0.109375 0.578125 0.109375q0.265625 0 0.71875 -0.0625zm1.5895386 1.46875l0 -9.671875l1.46875 0l0 1.46875q0.5625 -1.03125 1.03125 -1.359375q0.484375 -0.328125 1.0625 -0.328125q0.828125 0 1.6875 0.53125l-0.5625 1.515625q-0.609375 -0.359375 -1.203125 -0.359375q-0.546875 0 -0.96875 0.328125q-0.421875 0.328125 -0.609375 0.890625q-0.28125 0.875 -0.28125 1.921875l0 5.0625l-1.625 0zm5.6188965 -4.84375q0 -2.6875 1.484375 -3.96875q1.25 -1.078125 3.046875 -1.078125q2.0 0 3.265625 1.3125q1.265625 1.296875 1.265625 3.609375q0 1.859375 -0.5625 2.9375q-0.5625 1.0625 -1.640625 1.65625q-1.0625 0.59375 -2.328125 0.59375q-2.03125 0 -3.28125 -1.296875q-1.25 -1.3125 -1.25 -3.765625zm1.6875 0q0 1.859375 0.796875 2.796875q0.8125 0.921875 2.046875 0.921875q1.21875 0 2.03125 -0.921875q0.8125 -0.9375 0.8125 -2.84375q0 -1.796875 -0.8125 -2.71875q-0.8125 -0.921875 -2.03125 -0.921875q-1.234375 0 -2.046875 0.921875q-0.796875 0.90625 -0.796875 2.765625zm9.250732 4.84375l0 -13.359375l1.640625 0l0 13.359375l-1.640625 0zm4.1448364 0l0 -13.359375l1.640625 0l0 13.359375l-1.640625 0zm10.816711 -3.109375l1.6875 0.203125q-0.40625 1.484375 -1.484375 2.3125q-1.078125 0.8125 -2.765625 0.8125q-2.125 0 -3.375 -1.296875q-1.234375 -1.3125 -1.234375 -3.671875q0 -2.453125 1.25 -3.796875q1.265625 -1.34375 3.265625 -1.34375q1.9375 0 3.15625 1.328125q1.234375 1.3125 1.234375 3.703125q0 0.15625 0 0.4375l-7.21875 0q0.09375 1.59375 0.90625 2.453125q0.8125 0.84375 2.015625 0.84375q0.90625 0 1.546875 -0.46875q0.640625 -0.484375 1.015625 -1.515625zm-5.390625 -2.65625l5.40625 0q-0.109375 -1.21875 -0.625 -1.828125q-0.78125 -0.953125 -2.03125 -0.953125q-1.125 0 -1.90625 0.765625q-0.765625 0.75 -0.84375 2.015625zm9.125671 5.765625l0 -9.671875l1.46875 0l0 1.46875q0.5625 -1.03125 1.03125 -1.359375q0.484375 -0.328125 1.0625 -0.328125q0.828125 0 1.6875 0.53125l-0.5625 1.515625q-0.609375 -0.359375 -1.203125 -0.359375q-0.546875 0 -0.96875 0.328125q-0.421875 0.328125 -0.609375 0.890625q-0.28125 0.875 -0.28125 1.921875l0 5.0625l-1.625 0z" fill-rule="nonzero"/><path fill="#cfe2f3" d="m801.4906 123.538055l96.78613 0l0 0c12.67926 0 22.957825 14.104935 22.957825 31.504257c0 17.399323 -10.278564 31.504242 -22.957825 31.504242l-96.78613 0l0 0c-12.67926 0 -22.957764 -14.104919 -22.957764 -31.504242c0 -17.399323 10.278503 -31.504257 22.957764 -31.504257z" fill-rule="evenodd"/><path stroke="#000000" stroke-width="1.0" stroke-linejoin="round" stroke-linecap="butt" d="m801.4906 123.538055l96.78613 0l0 0c12.67926 0 22.957825 14.104935 22.957825 31.504257c0 17.399323 -10.278564 31.504242 -22.957825 31.504242l-96.78613 0l0 0c-12.67926 0 -22.957764 -14.104919 -22.957764 -31.504242c0 -17.399323 10.278503 -31.504257 22.957764 -31.504257z" fill-rule="evenodd"/><path fill="#000000" d="m795.6489 161.96231l0 -13.359375l2.65625 0l3.15625 9.453125q0.4375 1.328125 0.640625 1.984375q0.234375 -0.734375 0.703125 -2.140625l3.203125 -9.296875l2.375 0l0 13.359375l-1.703125 0l0 -11.171875l-3.875 11.171875l-1.59375 0l-3.859375 -11.375l0 11.375l-1.703125 0zm14.7751465 -4.84375q0 -2.6875 1.484375 -3.96875q1.25 -1.078125 3.046875 -1.078125q2.0 0 3.265625 1.3125q1.265625 1.296875 1.265625 3.609375q0 1.859375 -0.5625 2.9375q-0.5625 1.0625 -1.640625 1.65625q-1.0625 0.59375 -2.328125 0.59375q-2.03125 0 -3.28125 -1.296875q-1.25 -1.3125 -1.25 -3.765625zm1.6875 0q0 1.859375 0.796875 2.796875q0.8125 0.921875 2.046875 0.921875q1.21875 0 2.03125 -0.921875q0.8125 -0.9375 0.8125 -2.84375q0 -1.796875 -0.8125 -2.71875q-0.8125 -0.921875 -2.03125 -0.921875q-1.234375 0 -2.046875 0.921875q-0.796875 0.90625 -0.796875 2.765625zm12.875732 3.375l0.234375 1.453125q-0.6875 0.140625 -1.234375 0.140625q-0.890625 0 -1.390625 -0.28125q-0.484375 -0.28125 -0.6875 -0.734375q-0.203125 -0.46875 -0.203125 -1.9375l0 -5.578125l-1.203125 0l0 -1.265625l1.203125 0l0 -2.390625l1.625 -0.984375l0 3.375l1.65625 0l0 1.265625l-1.65625 0l0 5.671875q0 0.6875 0.078125 0.890625q0.09375 0.203125 0.28125 0.328125q0.203125 0.109375 0.578125 0.109375q0.265625 0 0.71875 -0.0625zm0.9957886 -3.375q0 -2.6875 1.484375 -3.96875q1.25 -1.078125 3.046875 -1.078125q2.0 0 3.265625 1.3125q1.265625 1.296875 1.265625 3.609375q0 1.859375 -0.5625 2.9375q-0.5625 1.0625 -1.640625 1.65625q-1.0625 0.59375 -2.328125 0.59375q-2.03125 0 -3.28125 -1.296875q-1.25 -1.3125 -1.25 -3.765625zm1.6875 0q0 1.859375 0.796875 2.796875q0.8125 0.921875 2.046875 0.921875q1.21875 0 2.03125 -0.921875q0.8125 -0.9375 0.8125 -2.84375q0 -1.796875 -0.8125 -2.71875q-0.8125 -0.921875 -2.03125 -0.921875q-1.234375 0 -2.046875 0.921875q-0.796875 0.90625 -0.796875 2.765625zm9.281982 4.84375l0 -9.671875l1.46875 0l0 1.46875q0.5625 -1.03125 1.03125 -1.359375q0.484375 -0.328125 1.0625 -0.328125q0.828125 0 1.6875 0.53125l-0.5625 1.515625q-0.609375 -0.359375 -1.203125 -0.359375q-0.546875 0 -0.96875 0.328125q-0.421875 0.328125 -0.609375 0.890625q-0.28125 0.875 -0.28125 1.921875l0 5.0625l-1.625 0zm5.5720825 -2.890625l1.625 -0.25q0.125 0.96875 0.75 1.5q0.625 0.515625 1.75 0.515625q1.125 0 1.671875 -0.453125q0.546875 -0.46875 0.546875 -1.09375q0 -0.546875 -0.484375 -0.875q-0.328125 -0.21875 -1.671875 -0.546875q-1.8125 -0.46875 -2.515625 -0.796875q-0.6875 -0.328125 -1.046875 -0.90625q-0.359375 -0.59375 -0.359375 -1.3125q0 -0.640625 0.296875 -1.1875q0.296875 -0.5625 0.8125 -0.921875q0.375 -0.28125 1.03125 -0.46875q0.671875 -0.203125 1.421875 -0.203125q1.140625 0 2.0 0.328125q0.859375 0.328125 1.265625 0.890625q0.421875 0.5625 0.578125 1.5l-1.609375 0.21875q-0.109375 -0.75 -0.640625 -1.171875q-0.515625 -0.421875 -1.46875 -0.421875q-1.140625 0 -1.625 0.375q-0.46875 0.375 -0.46875 0.875q0 0.3125 0.1875 0.578125q0.203125 0.265625 0.640625 0.4375q0.234375 0.09375 1.4375 0.421875q1.75 0.453125 2.4375 0.75q0.6875 0.296875 1.078125 0.859375q0.390625 0.5625 0.390625 1.40625q0 0.828125 -0.484375 1.546875q-0.46875 0.71875 -1.375 1.125q-0.90625 0.390625 -2.046875 0.390625q-1.875 0 -2.875 -0.78125q-0.984375 -0.78125 -1.25 -2.328125z" fill-rule="nonzero"/><path fill="#cfe2f3" d="m801.4906 194.20998l96.78613 0l0 0c12.67926 0 22.957825 14.104935 22.957825 31.504242c0 17.399323 -10.278564 31.504257 -22.957825 31.504257l-96.78613 0l0 0c-12.67926 0 -22.957764 -14.104935 -22.957764 -31.504257c0 -17.399307 10.278503 -31.504242 22.957764 -31.504242z" fill-rule="evenodd"/><path stroke="#000000" stroke-width="1.0" stroke-linejoin="round" stroke-linecap="butt" d="m801.4906 194.20998l96.78613 0l0 0c12.67926 0 22.957825 14.104935 22.957825 31.504242c0 17.399323 -10.278564 31.504257 -22.957825 31.504257l-96.78613 0l0 0c-12.67926 0 -22.957764 -14.104935 -22.957764 -31.504257c0 -17.399307 10.278503 -31.504242 22.957764 -31.504242z" fill-rule="evenodd"/><path fill="#000000" d="m795.6177 221.63422l0 -13.359375l1.78125 0l0 11.78125l6.5625 0l0 1.578125l-8.34375 0zm10.250732 -11.46875l0 -1.890625l1.640625 0l0 1.890625l-1.640625 0zm0 11.46875l0 -9.671875l1.640625 0l0 9.671875l-1.640625 0zm4.1447754 0l0 -9.671875l1.46875 0l0 1.359375q0.453125 -0.71875 1.203125 -1.140625q0.765625 -0.4375 1.71875 -0.4375q1.078125 0 1.765625 0.453125q0.6875 0.4375 0.96875 1.234375q1.15625 -1.6875 2.984375 -1.6875q1.453125 0 2.21875 0.796875q0.78125 0.796875 0.78125 2.453125l0 6.640625l-1.640625 0l0 -6.09375q0 -0.984375 -0.15625 -1.40625q-0.15625 -0.4375 -0.578125 -0.703125q-0.421875 -0.265625 -0.984375 -0.265625q-1.015625 0 -1.6875 0.6875q-0.671875 0.671875 -0.671875 2.15625l0 5.625l-1.640625 0l0 -6.28125q0 -1.09375 -0.40625 -1.640625q-0.40625 -0.546875 -1.3125 -0.546875q-0.6875 0 -1.28125 0.359375q-0.59375 0.359375 -0.859375 1.0625q-0.25 0.703125 -0.25 2.03125l0 5.015625l-1.640625 0zm15.5408325 -11.46875l0 -1.890625l1.640625 0l0 1.890625l-1.640625 0zm0 11.46875l0 -9.671875l1.640625 0l0 9.671875l-1.640625 0zm7.7229614 -1.46875l0.234375 1.453125q-0.6875 0.140625 -1.234375 0.140625q-0.890625 0 -1.390625 -0.28125q-0.484375 -0.28125 -0.6875 -0.734375q-0.203125 -0.46875 -0.203125 -1.9375l0 -5.578125l-1.203125 0l0 -1.265625l1.203125 0l0 -2.390625l1.625 -0.984375l0 3.375l1.65625 0l0 1.265625l-1.65625 0l0 5.671875q0 0.6875 0.078125 0.890625q0.09375 0.203125 0.28125 0.328125q0.203125 0.109375 0.578125 0.109375q0.265625 0 0.71875 -0.0625z" fill-rule="nonzero"/><path fill="#000000" d="m795.10205 239.33734l1.65625 -0.140625q0.125 1.0 0.546875 1.640625q0.4375 0.640625 1.34375 1.046875q0.921875 0.390625 2.0625 0.390625q1.0 0 1.78125 -0.296875q0.78125 -0.296875 1.15625 -0.8125q0.375 -0.53125 0.375 -1.15625q0 -0.625 -0.375 -1.09375q-0.359375 -0.46875 -1.1875 -0.796875q-0.546875 -0.203125 -2.390625 -0.640625q-1.828125 -0.453125 -2.5625 -0.84375q-0.96875 -0.5 -1.4375 -1.234375q-0.46875 -0.75 -0.46875 -1.671875q0 -1.0 0.578125 -1.875q0.578125 -0.890625 1.671875 -1.34375q1.109375 -0.453125 2.453125 -0.453125q1.484375 0 2.609375 0.484375q1.140625 0.46875 1.75 1.40625q0.609375 0.921875 0.65625 2.09375l-1.6875 0.125q-0.140625 -1.265625 -0.9375 -1.90625q-0.78125 -0.65625 -2.3125 -0.65625q-1.609375 0 -2.34375 0.59375q-0.734375 0.59375 -0.734375 1.421875q0 0.71875 0.53125 1.171875q0.5 0.46875 2.65625 0.96875q2.15625 0.484375 2.953125 0.84375q1.171875 0.53125 1.71875 1.359375q0.5625 0.828125 0.5625 1.90625q0 1.0625 -0.609375 2.015625q-0.609375 0.9375 -1.75 1.46875q-1.140625 0.515625 -2.578125 0.515625q-1.8125 0 -3.046875 -0.53125q-1.21875 -0.53125 -1.921875 -1.59375q-0.6875 -1.0625 -0.71875 -2.40625zm14.6154175 4.296875l-2.96875 -9.671875l1.703125 0l1.53125 5.578125l0.578125 2.078125q0.046875 -0.15625 0.5 -2.0l1.546875 -5.65625l1.6875 0l1.4375 5.609375l0.484375 1.84375l0.5625 -1.859375l1.65625 -5.59375l1.59375 0l-3.03125 9.671875l-1.703125 0l-1.53125 -5.796875l-0.375 -1.640625l-1.953125 7.4375l-1.71875 0zm11.691711 -11.46875l0 -1.890625l1.640625 0l0 1.890625l-1.640625 0zm0 11.46875l0 -9.671875l1.640625 0l0 9.671875l-1.640625 0zm7.7229614 -1.46875l0.234375 1.453125q-0.6875 0.140625 -1.234375 0.140625q-0.890625 0 -1.390625 -0.28125q-0.484375 -0.28125 -0.6875 -0.734375q-0.203125 -0.46875 -0.203125 -1.9375l0 -5.578125l-1.203125 0l0 -1.265625l1.203125 0l0 -2.390625l1.625 -0.984375l0 3.375l1.65625 0l0 1.265625l-1.65625 0l0 5.671875q0 0.6875 0.078125 0.890625q0.09375 0.203125 0.28125 0.328125q0.203125 0.109375 0.578125 0.109375q0.265625 0 0.71875 -0.0625zm7.9176636 -2.078125l1.609375 0.21875q-0.265625 1.65625 -1.359375 2.609375q-1.078125 0.9375 -2.671875 0.9375q-1.984375 0 -3.1875 -1.296875q-1.203125 -1.296875 -1.203125 -3.71875q0 -1.578125 0.515625 -2.75q0.515625 -1.171875 1.578125 -1.75q1.0625 -0.59375 2.3125 -0.59375q1.578125 0 2.578125 0.796875q1.0 0.796875 1.28125 2.265625l-1.59375 0.234375q-0.234375 -0.96875 -0.8125 -1.453125q-0.578125 -0.5 -1.390625 -0.5q-1.234375 0 -2.015625 0.890625q-0.78125 0.890625 -0.78125 2.8125q0 1.953125 0.75 2.84375q0.75 0.875 1.953125 0.875q0.96875 0 1.609375 -0.59375q0.65625 -0.59375 0.828125 -1.828125zm3.015625 3.546875l0 -13.359375l1.640625 0l0 4.796875q1.140625 -1.328125 2.890625 -1.328125q1.078125 0 1.859375 0.421875q0.796875 0.421875 1.140625 1.171875q0.34375 0.75 0.34375 2.171875l0 6.125l-1.640625 0l0 -6.125q0 -1.234375 -0.53125 -1.796875q-0.53125 -0.5625 -1.515625 -0.5625q-0.71875 0 -1.359375 0.390625q-0.640625 0.375 -0.921875 1.015625q-0.265625 0.640625 -0.265625 1.78125l0 5.296875l-1.640625 0zm17.000732 -3.109375l1.6875 0.203125q-0.40625 1.484375 -1.484375 2.3125q-1.078125 0.8125 -2.765625 0.8125q-2.125 0 -3.375 -1.296875q-1.234375 -1.3125 -1.234375 -3.671875q0 -2.453125 1.25 -3.796875q1.265625 -1.34375 3.265625 -1.34375q1.9375 0 3.15625 1.328125q1.234375 1.3125 1.234375 3.703125q0 0.15625 0 0.4375l-7.21875 0q0.09375 1.59375 0.90625 2.453125q0.8125 0.84375 2.015625 0.84375q0.90625 0 1.546875 -0.46875q0.640625 -0.484375 1.015625 -1.515625zm-5.390625 -2.65625l5.40625 0q-0.109375 -1.21875 -0.625 -1.828125q-0.78125 -0.953125 -2.03125 -0.953125q-1.125 0 -1.90625 0.765625q-0.765625 0.75 -0.84375 2.015625zm8.485107 2.875l1.625 -0.25q0.125 0.96875 0.75 1.5q0.625 0.515625 1.75 0.515625q1.125 0 1.671875 -0.453125q0.546875 -0.46875 0.546875 -1.09375q0 -0.546875 -0.484375 -0.875q-0.328125 -0.21875 -1.671875 -0.546875q-1.8125 -0.46875 -2.515625 -0.796875q-0.6875 -0.328125 -1.046875 -0.90625q-0.359375 -0.59375 -0.359375 -1.3125q0 -0.640625 0.296875 -1.1875q0.296875 -0.5625 0.8125 -0.921875q0.375 -0.28125 1.03125 -0.46875q0.671875 -0.203125 1.421875 -0.203125q1.140625 0 2.0 0.328125q0.859375 0.328125 1.265625 0.890625q0.421875 0.5625 0.578125 1.5l-1.609375 0.21875q-0.109375 -0.75 -0.640625 -1.171875q-0.515625 -0.421875 -1.46875 -0.421875q-1.140625 0 -1.625 0.375q-0.46875 0.375 -0.46875 0.875q0 0.3125 0.1875 0.578125q0.203125 0.265625 0.640625 0.4375q0.234375 0.09375 1.4375 0.421875q1.75 0.453125 2.4375 0.75q0.6875 0.296875 1.078125 0.859375q0.390625 0.5625 0.390625 1.40625q0 0.828125 -0.484375 1.546875q-0.46875 0.71875 -1.375 1.125q-0.90625 0.390625 -2.046875 0.390625q-1.875 0 -2.875 -0.78125q-0.984375 -0.78125 -1.25 -2.328125z" fill-rule="nonzero"/><path fill="#000000" fill-opacity="0.0" d="m167.0757 147.75212l24.913376 42.61418" fill-rule="evenodd"/><path stroke="#000000" stroke-width="1.0" stroke-linejoin="round" stroke-linecap="butt" d="m167.0757 147.75212l21.885178 37.434433" fill-rule="evenodd"/><path fill="#000000" stroke="#000000" stroke-width="1.0" stroke-linecap="butt" d="m187.53494 186.02019l3.7163239 3.084076l-0.86447144 -4.751343z" fill-rule="evenodd"/><path fill="#000000" fill-opacity="0.0" d="m167.0757 233.00409l24.913376 -42.614166" fill-rule="evenodd"/><path stroke="#000000" stroke-width="1.0" stroke-linejoin="round" stroke-linecap="butt" d="m167.0757 233.0041l21.885178 -37.434433" fill-rule="evenodd"/><path fill="#000000" stroke="#000000" stroke-width="1.0" stroke-linecap="butt" d="m190.3868 196.40332l0.86447144 -4.751343l-3.7163239 3.084076z" fill-rule="evenodd"/><path fill="#000000" fill-opacity="0.0" d="m324.5092 182.37796l82.99213 0" fill-rule="evenodd"/><path stroke="#38761d" stroke-width="1.0" stroke-linejoin="round" stroke-linecap="butt" d="m330.5092 182.37796l70.99213 0" fill-rule="evenodd"/><path fill="#38761d" stroke="#38761d" stroke-width="1.0" stroke-linecap="butt" d="m330.5092 180.72623l-4.538086 1.6517334l4.538086 1.6517181z" fill-rule="evenodd"/><path fill="#38761d" stroke="#38761d" stroke-width="1.0" stroke-linecap="butt" d="m401.5013 184.02968l4.538086 -1.6517181l-4.538086 -1.6517334z" fill-rule="evenodd"/><path fill="#000000" fill-opacity="0.0" d="m540.01575 190.37796l72.188965 0" fill-rule="evenodd"/><path stroke="#000000" stroke-width="1.0" stroke-linejoin="round" stroke-linecap="butt" d="m546.01575 190.37796l60.188965 0" fill-rule="evenodd"/><path fill="#000000" stroke="#000000" stroke-width="1.0" stroke-linecap="butt" d="m546.01575 188.72623l-4.538086 1.6517334l4.538086 1.6517181z" fill-rule="evenodd"/><path fill="#000000" stroke="#000000" stroke-width="1.0" stroke-linecap="butt" d="m606.2047 192.02968l4.538086 -1.6517181l-4.538086 -1.6517334z" fill-rule="evenodd"/><path fill="#000000" fill-opacity="0.0" d="m754.9038 190.37827l23.62207 -35.338577" fill-rule="evenodd"/><path stroke="#000000" stroke-width="1.0" stroke-linejoin="round" stroke-linecap="butt" d="m754.9039 190.37827l20.28772 -30.350388" fill-rule="evenodd"/><path fill="#000000" stroke="#000000" stroke-width="1.0" stroke-linecap="butt" d="m776.56476 160.94579l1.1487427 -4.6907196l-3.8951416 2.8549042z" fill-rule="evenodd"/><path fill="#000000" fill-opacity="0.0" d="m754.9038 190.37827l23.62207 35.338593" fill-rule="evenodd"/><path stroke="#000000" stroke-width="1.0" stroke-linejoin="round" stroke-linecap="butt" d="m754.9039 190.37827l20.28772 30.350388" fill-rule="evenodd"/><path fill="#000000" stroke="#000000" stroke-width="1.0" stroke-linecap="butt" d="m773.81836 221.64656l3.8951416 2.8549042l-1.1487427 -4.6907196z" fill-rule="evenodd"/><path fill="#000000" fill-opacity="0.0" d="m473.76117 158.87138l0 -20.976364" fill-rule="evenodd"/><path stroke="#000000" stroke-width="1.0" stroke-linejoin="round" stroke-linecap="butt" d="m473.76117 152.87138l0 -8.976364" fill-rule="evenodd"/><path fill="#000000" stroke="#000000" stroke-width="1.0" stroke-linecap="butt" d="m472.10944 152.8714l1.6517334 4.538086l1.6517029 -4.538086z" fill-rule="evenodd"/><path fill="#000000" stroke="#000000" stroke-width="1.0" stroke-linecap="butt" d="m475.41287 143.89502l-1.6517029 -4.538101l-1.6517334 4.538101z" fill-rule="evenodd"/><path fill="#000000" fill-opacity="0.0" d="m324.5092 202.08398l82.99213 0" fill-rule="evenodd"/><path stroke="#1155cc" stroke-width="1.0" stroke-linejoin="round" stroke-linecap="butt" d="m330.5092 202.08398l70.99213 0" fill-rule="evenodd"/><path fill="#1155cc" stroke="#1155cc" stroke-width="1.0" stroke-linecap="butt" d="m330.5092 200.43225l-4.538086 1.6517334l4.538086 1.6517334z" fill-rule="evenodd"/><path fill="#1155cc" stroke="#1155cc" stroke-width="1.0" stroke-linecap="butt" d="m401.5013 203.73572l4.538086 -1.6517334l-4.538086 -1.6517334z" fill-rule="evenodd"/><path fill="#000000" fill-opacity="0.0" d="m297.65353 127.86352l142.70868 0l0 50.3937l-142.70868 0z" fill-rule="evenodd"/><path fill="#38761d" d="m314.21588 148.38351l0 -8.59375l3.65625 0q1.375 0 2.0 0.234375q0.625 0.234375 1.0 0.828125q0.375 0.59375 0.375 1.34375q0 0.96875 -0.578125 1.609375q-0.5625 0.625 -1.6875 0.78125q0.5625 0.328125 0.921875 0.734375q0.375 0.390625 0.984375 1.390625l1.0625 1.671875l-2.078125 0l-1.25 -1.875q-0.671875 -1.0 -0.921875 -1.25q-0.25 -0.265625 -0.53125 -0.359375q-0.265625 -0.109375 -0.859375 -0.109375l-0.359375 0l0 3.59375l-1.734375 0zm1.734375 -4.953125l1.28125 0q1.25 0 1.5625 -0.109375q0.3125 -0.109375 0.484375 -0.359375q0.1875 -0.265625 0.1875 -0.65625q0 -0.421875 -0.234375 -0.6875q-0.234375 -0.265625 -0.65625 -0.34375q-0.21875 -0.03125 -1.265625 -0.03125l-1.359375 0l0 2.1875zm6.5410156 1.75q0 -0.8125 0.40625 -1.578125q0.40625 -0.78125 1.140625 -1.171875q0.734375 -0.40625 1.65625 -0.40625q1.40625 0 2.3125 0.921875q0.90625 0.90625 0.90625 2.3125q0 1.40625 -0.921875 2.34375q-0.90625 0.921875 -2.28125 0.921875q-0.859375 0 -1.640625 -0.390625q-0.765625 -0.390625 -1.171875 -1.125q-0.40625 -0.75 -0.40625 -1.828125zm1.6875 0.09375q0 0.921875 0.4375 1.421875q0.4375 0.484375 1.078125 0.484375q0.65625 0 1.078125 -0.484375q0.4375 -0.5 0.4375 -1.4375q0 -0.90625 -0.4375 -1.390625q-0.421875 -0.5 -1.078125 -0.5q-0.640625 0 -1.078125 0.5q-0.4375 0.484375 -0.4375 1.40625zm5.955078 3.109375l0 -8.59375l1.640625 0l0 3.09375q0.765625 -0.859375 1.8125 -0.859375q1.125 0 1.875 0.828125q0.75 0.8125 0.75 2.359375q0 1.59375 -0.765625 2.453125q-0.765625 0.859375 -1.84375 0.859375q-0.53125 0 -1.046875 -0.265625q-0.515625 -0.265625 -0.890625 -0.796875l0 0.921875l-1.53125 0zm1.625 -3.25q0 0.96875 0.3125 1.4375q0.421875 0.65625 1.140625 0.65625q0.53125 0 0.921875 -0.46875q0.390625 -0.46875 0.390625 -1.46875q0 -1.0625 -0.390625 -1.53125q-0.390625 -0.484375 -1.0 -0.484375q-0.578125 0 -0.984375 0.46875q-0.390625 0.453125 -0.390625 1.390625zm5.392578 0.046875q0 -0.8125 0.40625 -1.578125q0.40625 -0.78125 1.140625 -1.171875q0.734375 -0.40625 1.65625 -0.40625q1.40625 0 2.3125 0.921875q0.90625 0.90625 0.90625 2.3125q0 1.40625 -0.921875 2.34375q-0.90625 0.921875 -2.28125 0.921875q-0.859375 0 -1.640625 -0.390625q-0.765625 -0.390625 -1.171875 -1.125q-0.40625 -0.75 -0.40625 -1.828125zm1.6875 0.09375q0 0.921875 0.4375 1.421875q0.4375 0.484375 1.078125 0.484375q0.65625 0 1.078125 -0.484375q0.4375 -0.5 0.4375 -1.4375q0 -0.90625 -0.4375 -1.390625q-0.421875 -0.5 -1.078125 -0.5q-0.640625 0 -1.078125 0.5q-0.4375 0.484375 -0.4375 1.40625zm8.876953 -3.109375l0 1.3125l-1.125 0l0 2.5q0 0.765625 0.03125 0.890625q0.03125 0.125 0.140625 0.21875q0.125 0.078125 0.28125 0.078125q0.234375 0 0.65625 -0.171875l0.140625 1.28125q-0.5625 0.25 -1.296875 0.25q-0.4375 0 -0.796875 -0.140625q-0.359375 -0.15625 -0.53125 -0.390625q-0.15625 -0.25 -0.234375 -0.640625q-0.046875 -0.296875 -0.046875 -1.171875l0 -2.703125l-0.75 0l0 -1.3125l0.75 0l0 -1.234375l1.65625 -0.96875l0 2.203125l1.125 0zm4.455078 6.21875l0 -8.59375l2.609375 0l1.546875 5.859375l1.546875 -5.859375l2.59375 0l0 8.59375l-1.609375 0l0 -6.765625l-1.703125 6.765625l-1.671875 0l-1.6875 -6.765625l0 6.765625l-1.625 0zm11.246094 -4.328125l-1.5 -0.265625q0.25 -0.90625 0.859375 -1.328125q0.625 -0.4375 1.84375 -0.4375q1.09375 0 1.625 0.265625q0.546875 0.25 0.765625 0.65625q0.21875 0.390625 0.21875 1.46875l-0.015625 1.921875q0 0.828125 0.078125 1.21875q0.078125 0.375 0.296875 0.828125l-1.625 0q-0.0625 -0.171875 -0.15625 -0.484375q-0.046875 -0.15625 -0.0625 -0.203125q-0.421875 0.421875 -0.90625 0.625q-0.46875 0.203125 -1.015625 0.203125q-0.96875 0 -1.53125 -0.515625q-0.546875 -0.53125 -0.546875 -1.328125q0 -0.53125 0.25 -0.9375q0.265625 -0.40625 0.71875 -0.625q0.453125 -0.234375 1.3125 -0.390625q1.140625 -0.21875 1.59375 -0.40625l0 -0.15625q0 -0.484375 -0.234375 -0.6875q-0.234375 -0.203125 -0.890625 -0.203125q-0.4375 0 -0.6875 0.171875q-0.234375 0.171875 -0.390625 0.609375zm2.203125 1.34375q-0.3125 0.09375 -1.0 0.25q-0.6875 0.140625 -0.90625 0.28125q-0.3125 0.234375 -0.3125 0.578125q0 0.34375 0.25 0.609375q0.265625 0.25 0.65625 0.25q0.453125 0 0.859375 -0.296875q0.296875 -0.21875 0.390625 -0.546875q0.0625 -0.203125 0.0625 -0.796875l0 -0.328125zm8.892578 2.984375l-1.640625 0l0 -3.171875q0 -1.015625 -0.109375 -1.3125q-0.09375 -0.296875 -0.34375 -0.453125q-0.234375 -0.171875 -0.5625 -0.171875q-0.4375 0 -0.78125 0.234375q-0.328125 0.234375 -0.453125 0.625q-0.125 0.390625 -0.125 1.4375l0 2.8125l-1.65625 0l0 -6.21875l1.53125 0l0 0.90625q0.8125 -1.046875 2.0625 -1.046875q0.53125 0 0.984375 0.203125q0.453125 0.1875 0.6875 0.5q0.234375 0.296875 0.3125 0.6875q0.09375 0.375 0.09375 1.09375l0 3.875zm2.9082031 -4.328125l-1.5 -0.265625q0.25 -0.90625 0.859375 -1.328125q0.625 -0.4375 1.84375 -0.4375q1.09375 0 1.625 0.265625q0.546875 0.25 0.765625 0.65625q0.21875 0.390625 0.21875 1.46875l-0.015625 1.921875q0 0.828125 0.078125 1.21875q0.078125 0.375 0.296875 0.828125l-1.625 0q-0.0625 -0.171875 -0.15625 -0.484375q-0.046875 -0.15625 -0.0625 -0.203125q-0.421875 0.421875 -0.90625 0.625q-0.46875 0.203125 -1.015625 0.203125q-0.96875 0 -1.53125 -0.515625q-0.546875 -0.53125 -0.546875 -1.328125q0 -0.53125 0.25 -0.9375q0.265625 -0.40625 0.71875 -0.625q0.453125 -0.234375 1.3125 -0.390625q1.140625 -0.21875 1.59375 -0.40625l0 -0.15625q0 -0.484375 -0.234375 -0.6875q-0.234375 -0.203125 -0.890625 -0.203125q-0.4375 0 -0.6875 0.171875q-0.234375 0.171875 -0.390625 0.609375zm2.203125 1.34375q-0.3125 0.09375 -1.0 0.25q-0.6875 0.140625 -0.90625 0.28125q-0.3125 0.234375 -0.3125 0.578125q0 0.34375 0.25 0.609375q0.265625 0.25 0.65625 0.25q0.453125 0 0.859375 -0.296875q0.296875 -0.21875 0.390625 -0.546875q0.0625 -0.203125 0.0625 -0.796875l0 -0.328125zm3.0800781 3.390625l1.890625 0.234375q0.046875 0.328125 0.21875 0.453125q0.234375 0.171875 0.734375 0.171875q0.640625 0 0.96875 -0.1875q0.21875 -0.140625 0.328125 -0.421875q0.078125 -0.203125 0.078125 -0.75l0 -0.921875q-0.75 1.015625 -1.875 1.015625q-1.25 0 -1.984375 -1.0625q-0.5625 -0.84375 -0.5625 -2.078125q0 -1.578125 0.75 -2.390625q0.75 -0.828125 1.875 -0.828125q1.140625 0 1.890625 1.015625l0 -0.875l1.546875 0l0 5.578125q0 1.109375 -0.1875 1.640625q-0.171875 0.546875 -0.5 0.859375q-0.328125 0.3125 -0.875 0.484375q-0.546875 0.1875 -1.390625 0.1875q-1.578125 0 -2.25 -0.546875q-0.65625 -0.546875 -0.65625 -1.375q0 -0.078125 0 -0.203125zm1.484375 -3.640625q0 0.984375 0.375 1.453125q0.390625 0.453125 0.953125 0.453125q0.59375 0 1.015625 -0.46875q0.421875 -0.484375 0.421875 -1.40625q0 -0.96875 -0.40625 -1.4375q-0.390625 -0.46875 -1.0 -0.46875q-0.59375 0 -0.984375 0.46875q-0.375 0.453125 -0.375 1.40625zm9.611328 1.25l1.640625 0.28125q-0.3125 0.90625 -1.0 1.375q-0.6875 0.46875 -1.703125 0.46875q-1.625 0 -2.40625 -1.0625q-0.625 -0.84375 -0.625 -2.140625q0 -1.546875 0.8125 -2.421875q0.8125 -0.875 2.046875 -0.875q1.390625 0 2.1875 0.921875q0.8125 0.90625 0.765625 2.796875l-4.125 0q0.03125 0.734375 0.40625 1.140625q0.375 0.40625 0.953125 0.40625q0.375 0 0.640625 -0.203125q0.265625 -0.21875 0.40625 -0.6875zm0.09375 -1.65625q-0.015625 -0.71875 -0.375 -1.09375q-0.34375 -0.375 -0.859375 -0.375q-0.53125 0 -0.890625 0.390625q-0.34375 0.40625 -0.34375 1.078125l2.46875 0zm2.8457031 -2.578125l1.515625 0l0 0.84375q0.828125 -0.984375 1.953125 -0.984375q0.59375 0 1.03125 0.25q0.4375 0.234375 0.71875 0.734375q0.40625 -0.5 0.875 -0.734375q0.484375 -0.25 1.03125 -0.25q0.671875 0 1.140625 0.28125q0.484375 0.265625 0.71875 0.8125q0.171875 0.390625 0.171875 1.28125l0 3.984375l-1.640625 0l0 -3.5625q0 -0.921875 -0.171875 -1.1875q-0.234375 -0.359375 -0.703125 -0.359375q-0.34375 0 -0.65625 0.21875q-0.296875 0.203125 -0.4375 0.609375q-0.140625 0.40625 -0.140625 1.296875l0 2.984375l-1.640625 0l0 -3.40625q0 -0.90625 -0.09375 -1.171875q-0.078125 -0.265625 -0.265625 -0.390625q-0.1875 -0.140625 -0.5 -0.140625q-0.375 0 -0.6875 0.21875q-0.296875 0.203125 -0.4375 0.59375q-0.125 0.375 -0.125 1.265625l0 3.03125l-1.65625 0l0 -6.21875zm14.404297 4.234375l1.640625 0.28125q-0.3125 0.90625 -1.0 1.375q-0.6875 0.46875 -1.703125 0.46875q-1.625 0 -2.40625 -1.0625q-0.625 -0.84375 -0.625 -2.140625q0 -1.546875 0.8125 -2.421875q0.8125 -0.875 2.046875 -0.875q1.390625 0 2.1875 0.921875q0.8125 0.90625 0.765625 2.796875l-4.125 0q0.03125 0.734375 0.40625 1.140625q0.375 0.40625 0.953125 0.40625q0.375 0 0.640625 -0.203125q0.265625 -0.21875 0.40625 -0.6875zm0.09375 -1.65625q-0.015625 -0.71875 -0.375 -1.09375q-0.34375 -0.375 -0.859375 -0.375q-0.53125 0 -0.890625 0.390625q-0.34375 0.40625 -0.34375 1.078125l2.46875 0zm8.626953 3.640625l-1.640625 0l0 -3.171875q0 -1.015625 -0.109375 -1.3125q-0.09375 -0.296875 -0.34375 -0.453125q-0.234375 -0.171875 -0.5625 -0.171875q-0.4375 0 -0.78125 0.234375q-0.328125 0.234375 -0.453125 0.625q-0.125 0.390625 -0.125 1.4375l0 2.8125l-1.65625 0l0 -6.21875l1.53125 0l0 0.90625q0.8125 -1.046875 2.0625 -1.046875q0.53125 0 0.984375 0.203125q0.453125 0.1875 0.6875 0.5q0.234375 0.296875 0.3125 0.6875q0.09375 0.375 0.09375 1.09375l0 3.875zm4.533203 -6.21875l0 1.3125l-1.125 0l0 2.5q0 0.765625 0.03125 0.890625q0.03125 0.125 0.140625 0.21875q0.125 0.078125 0.28125 0.078125q0.234375 0 0.65625 -0.171875l0.140625 1.28125q-0.5625 0.25 -1.296875 0.25q-0.4375 0 -0.796875 -0.140625q-0.359375 -0.15625 -0.53125 -0.390625q-0.15625 -0.25 -0.234375 -0.640625q-0.046875 -0.296875 -0.046875 -1.171875l0 -2.703125l-0.75 0l0 -1.3125l0.75 0l0 -1.234375l1.65625 -0.96875l0 2.203125l1.125 0z" fill-rule="nonzero"/><path fill="#38761d" d="m354.21783 170.38351l0 -8.59375l1.734375 0l0 3.390625l3.40625 0l0 -3.390625l1.734375 0l0 8.59375l-1.734375 0l0 -3.75l-3.40625 0l0 3.75l-1.734375 0zm10.603516 0l0 -7.140625l-2.546875 0l0 -1.453125l6.8125 0l0 1.453125l-2.53125 0l0 7.140625l-1.734375 0zm7.330078 0l0 -7.140625l-2.546875 0l0 -1.453125l6.8125 0l0 1.453125l-2.53125 0l0 7.140625l-1.734375 0zm5.392578 0l0 -8.59375l2.78125 0q1.578125 0 2.0625 0.125q0.734375 0.203125 1.234375 0.859375q0.5 0.640625 0.5 1.65625q0 0.796875 -0.296875 1.34375q-0.28125 0.53125 -0.71875 0.84375q-0.4375 0.296875 -0.90625 0.40625q-0.609375 0.125 -1.796875 0.125l-1.125 0l0 3.234375l-1.734375 0zm1.734375 -7.140625l0 2.4375l0.953125 0q1.015625 0 1.359375 -0.125q0.359375 -0.140625 0.546875 -0.421875q0.203125 -0.296875 0.203125 -0.671875q0 -0.46875 -0.28125 -0.765625q-0.28125 -0.3125 -0.703125 -0.390625q-0.296875 -0.0625 -1.234375 -0.0625l-0.84375 0z" fill-rule="nonzero"/><path fill="#000000" fill-opacity="0.0" d="m304.48032 202.08398l132.50394 0l0 70.77167l-132.50394 0z" fill-rule="evenodd"/><path fill="#1155cc" d="m358.9393 222.60399l0 -8.59375l3.65625 0q1.375 0 2.0 0.234375q0.625 0.234375 1.0 0.828125q0.375 0.59375 0.375 1.34375q0 0.96875 -0.578125 1.609375q-0.5625 0.625 -1.6875 0.78125q0.5625 0.328125 0.921875 0.734375q0.375 0.390625 0.984375 1.390625l1.0625 1.671875l-2.078125 0l-1.25 -1.875q-0.671875 -1.0 -0.921875 -1.25q-0.25 -0.265625 -0.53125 -0.359375q-0.265625 -0.109375 -0.859375 -0.109375l-0.359375 0l0 3.59375l-1.734375 0zm1.734375 -4.953125l1.28125 0q1.25 0 1.5625 -0.109375q0.3125 -0.109375 0.484375 -0.359375q0.1875 -0.265625 0.1875 -0.65625q0 -0.421875 -0.234375 -0.6875q-0.234375 -0.265625 -0.65625 -0.34375q-0.21875 -0.03125 -1.265625 -0.03125l-1.359375 0l0 2.1875zm6.9316406 4.953125l0 -8.59375l2.78125 0q1.578125 0 2.0625 0.125q0.734375 0.203125 1.234375 0.859375q0.5 0.640625 0.5 1.65625q0 0.796875 -0.296875 1.34375q-0.28125 0.53125 -0.71875 0.84375q-0.4375 0.296875 -0.90625 0.40625q-0.609375 0.125 -1.796875 0.125l-1.125 0l0 3.234375l-1.734375 0zm1.734375 -7.140625l0 2.4375l0.953125 0q1.015625 0 1.359375 -0.125q0.359375 -0.140625 0.546875 -0.421875q0.203125 -0.296875 0.203125 -0.671875q0 -0.46875 -0.28125 -0.765625q-0.28125 -0.3125 -0.703125 -0.390625q-0.296875 -0.0625 -1.234375 -0.0625l-0.84375 0zm11.769531 3.984375l1.671875 0.53125q-0.375 1.40625 -1.28125 2.09375q-0.90625 0.671875 -2.28125 0.671875q-1.71875 0 -2.828125 -1.15625q-1.09375 -1.171875 -1.09375 -3.203125q0 -2.140625 1.109375 -3.328125q1.109375 -1.1875 2.921875 -1.1875q1.578125 0 2.5625 0.921875q0.578125 0.5625 0.875 1.59375l-1.71875 0.40625q-0.15625 -0.671875 -0.640625 -1.046875q-0.484375 -0.390625 -1.171875 -0.390625q-0.953125 0 -1.546875 0.6875q-0.59375 0.671875 -0.59375 2.21875q0 1.625 0.578125 2.3125q0.59375 0.6875 1.53125 0.6875q0.6875 0 1.1875 -0.4375q0.5 -0.4375 0.71875 -1.375z" fill-rule="nonzero"/><path fill="#1155cc" d="m316.93344 236.60399l0 -8.59375l2.78125 0q1.578125 0 2.0625 0.125q0.734375 0.203125 1.234375 0.859375q0.5 0.640625 0.5 1.65625q0 0.796875 -0.296875 1.34375q-0.28125 0.53125 -0.71875 0.84375q-0.4375 0.296875 -0.90625 0.40625q-0.609375 0.125 -1.796875 0.125l-1.125 0l0 3.234375l-1.734375 0zm1.734375 -7.140625l0 2.4375l0.953125 0q1.015625 0 1.359375 -0.125q0.359375 -0.140625 0.546875 -0.421875q0.203125 -0.296875 0.203125 -0.671875q0 -0.46875 -0.28125 -0.765625q-0.28125 -0.3125 -0.703125 -0.390625q-0.296875 -0.0625 -1.234375 -0.0625l-0.84375 0zm7.8320312 7.140625l-1.640625 0l0 -6.21875l1.53125 0l0 0.875q0.390625 -0.625 0.703125 -0.8125q0.3125 -0.203125 0.703125 -0.203125q0.5625 0 1.09375 0.3125l-0.515625 1.421875q-0.421875 -0.265625 -0.765625 -0.265625q-0.359375 0 -0.59375 0.203125q-0.234375 0.1875 -0.375 0.6875q-0.140625 0.484375 -0.140625 2.078125l0 1.921875zm2.7167969 -3.203125q0 -0.8125 0.40625 -1.578125q0.40625 -0.78125 1.140625 -1.171875q0.734375 -0.40625 1.65625 -0.40625q1.40625 0 2.3125 0.921875q0.90625 0.90625 0.90625 2.3125q0 1.40625 -0.921875 2.34375q-0.90625 0.921875 -2.28125 0.921875q-0.859375 0 -1.640625 -0.390625q-0.765625 -0.390625 -1.171875 -1.125q-0.40625 -0.75 -0.40625 -1.828125zm1.6875 0.09375q0 0.921875 0.4375 1.421875q0.4375 0.484375 1.078125 0.484375q0.65625 0 1.078125 -0.484375q0.4375 -0.5 0.4375 -1.4375q0 -0.90625 -0.4375 -1.390625q-0.421875 -0.5 -1.078125 -0.5q-0.640625 0 -1.078125 0.5q-0.4375 0.484375 -0.4375 1.40625zm8.876953 -3.109375l0 1.3125l-1.125 0l0 2.5q0 0.765625 0.03125 0.890625q0.03125 0.125 0.140625 0.21875q0.125 0.078125 0.28125 0.078125q0.234375 0 0.65625 -0.171875l0.140625 1.28125q-0.5625 0.25 -1.296875 0.25q-0.4375 0 -0.796875 -0.140625q-0.359375 -0.15625 -0.53125 -0.390625q-0.15625 -0.25 -0.234375 -0.640625q-0.046875 -0.296875 -0.046875 -1.171875l0 -2.703125l-0.75 0l0 -1.3125l0.75 0l0 -1.234375l1.65625 -0.96875l0 2.203125l1.125 0zm0.76171875 3.015625q0 -0.8125 0.40625 -1.578125q0.40625 -0.78125 1.140625 -1.171875q0.734375 -0.40625 1.65625 -0.40625q1.40625 0 2.3125 0.921875q0.90625 0.90625 0.90625 2.3125q0 1.40625 -0.921875 2.34375q-0.90625 0.921875 -2.28125 0.921875q-0.859375 0 -1.640625 -0.390625q-0.765625 -0.390625 -1.171875 -1.125q-0.40625 -0.75 -0.40625 -1.828125zm1.6875 0.09375q0 0.921875 0.4375 1.421875q0.4375 0.484375 1.078125 0.484375q0.65625 0 1.078125 -0.484375q0.4375 -0.5 0.4375 -1.4375q0 -0.90625 -0.4375 -1.390625q-0.421875 -0.5 -1.078125 -0.5q-0.640625 0 -1.078125 0.5q-0.4375 0.484375 -0.4375 1.40625zm11.439453 -1.28125l-1.609375 0.296875q-0.09375 -0.484375 -0.390625 -0.71875q-0.28125 -0.25 -0.734375 -0.25q-0.625 0 -1.0 0.421875q-0.359375 0.421875 -0.359375 1.421875q0 1.109375 0.375 1.5625q0.375 0.453125 1.0 0.453125q0.46875 0 0.765625 -0.265625q0.296875 -0.265625 0.421875 -0.921875l1.625 0.28125q-0.25 1.109375 -0.96875 1.6875q-0.71875 0.5625 -1.921875 0.5625q-1.359375 0 -2.171875 -0.859375q-0.8125 -0.859375 -0.8125 -2.390625q0 -1.53125 0.8125 -2.390625q0.8125 -0.859375 2.203125 -0.859375q1.140625 0 1.8125 0.484375q0.671875 0.484375 0.953125 1.484375zm0.8769531 1.1875q0 -0.8125 0.40625 -1.578125q0.40625 -0.78125 1.140625 -1.171875q0.734375 -0.40625 1.65625 -0.40625q1.40625 0 2.3125 0.921875q0.90625 0.90625 0.90625 2.3125q0 1.40625 -0.921875 2.34375q-0.90625 0.921875 -2.28125 0.921875q-0.859375 0 -1.640625 -0.390625q-0.765625 -0.390625 -1.171875 -1.125q-0.40625 -0.75 -0.40625 -1.828125zm1.6875 0.09375q0 0.921875 0.4375 1.421875q0.4375 0.484375 1.078125 0.484375q0.65625 0 1.078125 -0.484375q0.4375 -0.5 0.4375 -1.4375q0 -0.90625 -0.4375 -1.390625q-0.421875 -0.5 -1.078125 -0.5q-0.640625 0 -1.078125 0.5q-0.4375 0.484375 -0.4375 1.40625zm6.017578 3.109375l0 -8.59375l1.65625 0l0 8.59375l-1.65625 0zm6.6835938 0l0 -8.59375l6.375 0l0 1.453125l-4.640625 0l0 1.90625l4.3125 0l0 1.453125l-4.3125 0l0 2.328125l4.796875 0l0 1.453125l-6.53125 0zm7.2070312 0l2.234375 -3.203125l-2.140625 -3.015625l2.0 0l1.109375 1.703125l1.15625 -1.703125l1.9375 0l-2.109375 2.9375l2.296875 3.28125l-2.015625 0l-1.265625 -1.921875l-1.28125 1.921875l-1.921875 0zm11.064453 -1.984375l1.640625 0.28125q-0.3125 0.90625 -1.0 1.375q-0.6875 0.46875 -1.703125 0.46875q-1.625 0 -2.40625 -1.0625q-0.625 -0.84375 -0.625 -2.140625q0 -1.546875 0.8125 -2.421875q0.8125 -0.875 2.046875 -0.875q1.390625 0 2.1875 0.921875q0.8125 0.90625 0.765625 2.796875l-4.125 0q0.03125 0.734375 0.40625 1.140625q0.375 0.40625 0.953125 0.40625q0.375 0 0.640625 -0.203125q0.265625 -0.21875 0.40625 -0.6875zm0.09375 -1.65625q-0.015625 -0.71875 -0.375 -1.09375q-0.34375 -0.375 -0.859375 -0.375q-0.53125 0 -0.890625 0.390625q-0.34375 0.40625 -0.34375 1.078125l2.46875 0zm8.392578 -0.75l-1.609375 0.296875q-0.09375 -0.484375 -0.390625 -0.71875q-0.28125 -0.25 -0.734375 -0.25q-0.625 0 -1.0 0.421875q-0.359375 0.421875 -0.359375 1.421875q0 1.109375 0.375 1.5625q0.375 0.453125 1.0 0.453125q0.46875 0 0.765625 -0.265625q0.296875 -0.265625 0.421875 -0.921875l1.625 0.28125q-0.25 1.109375 -0.96875 1.6875q-0.71875 0.5625 -1.921875 0.5625q-1.359375 0 -2.171875 -0.859375q-0.8125 -0.859375 -0.8125 -2.390625q0 -1.53125 0.8125 -2.390625q0.8125 -0.859375 2.203125 -0.859375q1.140625 0 1.8125 0.484375q0.671875 0.484375 0.953125 1.484375zm5.345703 4.390625l0 -0.9375q-0.328125 0.5 -0.890625 0.796875q-0.546875 0.28125 -1.171875 0.28125q-0.625 0 -1.125 -0.265625q-0.5 -0.28125 -0.71875 -0.78125q-0.21875 -0.5 -0.21875 -1.375l0 -3.9375l1.640625 0l0 2.859375q0 1.3125 0.09375 1.609375q0.09375 0.296875 0.328125 0.46875q0.25 0.171875 0.609375 0.171875q0.421875 0 0.75 -0.234375q0.34375 -0.234375 0.46875 -0.578125q0.125 -0.34375 0.125 -1.671875l0 -2.625l1.640625 0l0 6.21875l-1.53125 0zm6.095703 -6.21875l0 1.3125l-1.125 0l0 2.5q0 0.765625 0.03125 0.890625q0.03125 0.125 0.140625 0.21875q0.125 0.078125 0.28125 0.078125q0.234375 0 0.65625 -0.171875l0.140625 1.28125q-0.5625 0.25 -1.296875 0.25q-0.4375 0 -0.796875 -0.140625q-0.359375 -0.15625 -0.53125 -0.390625q-0.15625 -0.25 -0.234375 -0.640625q-0.046875 -0.296875 -0.046875 -1.171875l0 -2.703125l-0.75 0l0 -1.3125l0.75 0l0 -1.234375l1.65625 -0.96875l0 2.203125l1.125 0zm1.1367188 -0.84375l0 -1.53125l1.65625 0l0 1.53125l-1.65625 0zm0 7.0625l0 -6.21875l1.65625 0l0 6.21875l-1.65625 0zm2.9589844 -3.203125q0 -0.8125 0.40625 -1.578125q0.40625 -0.78125 1.140625 -1.171875q0.734375 -0.40625 1.65625 -0.40625q1.40625 0 2.3125 0.921875q0.90625 0.90625 0.90625 2.3125q0 1.40625 -0.921875 2.34375q-0.90625 0.921875 -2.28125 0.921875q-0.859375 0 -1.640625 -0.390625q-0.765625 -0.390625 -1.171875 -1.125q-0.40625 -0.75 -0.40625 -1.828125zm1.6875 0.09375q0 0.921875 0.4375 1.421875q0.4375 0.484375 1.078125 0.484375q0.65625 0 1.078125 -0.484375q0.4375 -0.5 0.4375 -1.4375q0 -0.90625 -0.4375 -1.390625q-0.421875 -0.5 -1.078125 -0.5q-0.640625 0 -1.078125 0.5q-0.4375 0.484375 -0.4375 1.40625zm11.673828 3.109375l-1.640625 0l0 -3.171875q0 -1.015625 -0.109375 -1.3125q-0.09375 -0.296875 -0.34375 -0.453125q-0.234375 -0.171875 -0.5625 -0.171875q-0.4375 0 -0.78125 0.234375q-0.328125 0.234375 -0.453125 0.625q-0.125 0.390625 -0.125 1.4375l0 2.8125l-1.65625 0l0 -6.21875l1.53125 0l0 0.90625q0.8125 -1.046875 2.0625 -1.046875q0.53125 0 0.984375 0.203125q0.453125 0.1875 0.6875 0.5q0.234375 0.296875 0.3125 0.6875q0.09375 0.375 0.09375 1.09375l0 3.875z" fill-rule="nonzero"/><path fill="#000000" fill-opacity="0.0" d="m531.5748 159.30708l89.07086 0l0 26.803146l-89.07086 0z" fill-rule="evenodd"/><path fill="#000000" d="m561.3876 176.45209l0 -1.0l3.625 -0.015625l0 3.1875q-0.828125 0.671875 -1.71875 1.015625q-0.890625 0.328125 -1.828125 0.328125q-1.265625 0 -2.3125 -0.53125q-1.03125 -0.546875 -1.5625 -1.5625q-0.515625 -1.03125 -0.515625 -2.296875q0 -1.265625 0.515625 -2.34375q0.53125 -1.09375 1.515625 -1.609375q0.984375 -0.53125 2.265625 -0.53125q0.9375 0 1.6875 0.296875q0.75 0.296875 1.171875 0.84375q0.4375 0.53125 0.65625 1.40625l-1.015625 0.28125q-0.203125 -0.65625 -0.5 -1.03125q-0.28125 -0.375 -0.8125 -0.59375q-0.53125 -0.234375 -1.171875 -0.234375q-0.78125 0 -1.359375 0.234375q-0.5625 0.234375 -0.921875 0.625q-0.34375 0.390625 -0.53125 0.859375q-0.328125 0.796875 -0.328125 1.71875q0 1.15625 0.390625 1.9375q0.40625 0.765625 1.15625 1.140625q0.75 0.375 1.609375 0.375q0.734375 0 1.4375 -0.28125q0.703125 -0.296875 1.0625 -0.609375l0 -1.609375l-2.515625 0zm4.7558594 0.796875l0 -1.0625l3.25 0l0 1.0625l-3.25 0zm8.480469 0.296875l1.03125 0.140625q-0.171875 1.0625 -0.875 1.671875q-0.703125 0.609375 -1.71875 0.609375q-1.28125 0 -2.0625 -0.828125q-0.765625 -0.84375 -0.765625 -2.40625q0 -1.0 0.328125 -1.75q0.34375 -0.765625 1.015625 -1.140625q0.6875 -0.375 1.5 -0.375q1.0 0 1.640625 0.515625q0.65625 0.5 0.84375 1.453125l-1.03125 0.15625q-0.140625 -0.625 -0.515625 -0.9375q-0.375 -0.328125 -0.90625 -0.328125q-0.796875 0 -1.296875 0.578125q-0.5 0.5625 -0.5 1.796875q0 1.265625 0.484375 1.828125q0.484375 0.5625 1.25 0.5625q0.625 0 1.03125 -0.375q0.421875 -0.375 0.546875 -1.171875zm1.546875 -0.828125q0 -1.734375 0.953125 -2.5625q0.796875 -0.6875 1.953125 -0.6875q1.28125 0 2.09375 0.84375q0.828125 0.828125 0.828125 2.3125q0 1.203125 -0.359375 1.890625q-0.359375 0.6875 -1.0625 1.078125q-0.6875 0.375 -1.5 0.375q-1.296875 0 -2.109375 -0.828125q-0.796875 -0.84375 -0.796875 -2.421875zm1.078125 0q0 1.1875 0.515625 1.78125q0.53125 0.59375 1.3125 0.59375q0.796875 0 1.3125 -0.59375q0.515625 -0.59375 0.515625 -1.8125q0 -1.15625 -0.53125 -1.75q-0.515625 -0.59375 -1.296875 -0.59375q-0.78125 0 -1.3125 0.59375q-0.515625 0.578125 -0.515625 1.78125zm10.017578 3.109375l0 -0.78125q-0.59375 0.921875 -1.734375 0.921875q-0.75 0 -1.375 -0.40625q-0.625 -0.421875 -0.96875 -1.15625q-0.34375 -0.734375 -0.34375 -1.6875q0 -0.921875 0.3125 -1.6875q0.3125 -0.765625 0.9375 -1.15625q0.625 -0.40625 1.390625 -0.40625q0.5625 0 1.0 0.234375q0.4375 0.234375 0.71875 0.609375l0 -3.078125l1.046875 0l0 8.59375l-0.984375 0zm-3.328125 -3.109375q0 1.203125 0.5 1.796875q0.5 0.578125 1.1875 0.578125q0.6875 0 1.171875 -0.5625q0.484375 -0.5625 0.484375 -1.71875q0 -1.28125 -0.5 -1.875q-0.484375 -0.59375 -1.203125 -0.59375q-0.703125 0 -1.171875 0.578125q-0.46875 0.5625 -0.46875 1.796875zm10.220703 1.109375l1.09375 0.125q-0.25 0.953125 -0.953125 1.484375q-0.703125 0.53125 -1.78125 0.53125q-1.359375 0 -2.171875 -0.84375q-0.796875 -0.84375 -0.796875 -2.359375q0 -1.5625 0.8125 -2.421875q0.8125 -0.875 2.09375 -0.875q1.25 0 2.03125 0.84375q0.796875 0.84375 0.796875 2.390625q0 0.09375 0 0.28125l-4.640625 0q0.0625 1.03125 0.578125 1.578125q0.515625 0.53125 1.296875 0.53125q0.578125 0 0.984375 -0.296875q0.421875 -0.3125 0.65625 -0.96875zm-3.453125 -1.703125l3.46875 0q-0.0625 -0.796875 -0.390625 -1.1875q-0.515625 -0.609375 -1.3125 -0.609375q-0.734375 0 -1.234375 0.484375q-0.484375 0.484375 -0.53125 1.3125z" fill-rule="nonzero"/><path fill="#000000" fill-opacity="0.0" d="m426.5958 18.32021l94.33072 0l0 35.338585l-94.33072 0z" fill-rule="evenodd"/><path fill="#db4437" d="m440.60638 43.802708l6.28125 0l0 1.4375l-8.03125 0l0 -13.265625l1.75 0l0 11.828125zm9.851166 1.4375l-1.6875 0l0 -9.859375l1.6875 0l0 9.859375zm-1.828125 -12.46875q0 -0.40625 0.25 -0.6875q0.25 -0.296875 0.734375 -0.296875q0.5 0 0.75 0.296875q0.265625 0.28125 0.265625 0.6875q0 0.40625 -0.265625 0.6875q-0.25 0.265625 -0.75 0.265625q-0.484375 0 -0.734375 -0.265625q-0.25 -0.28125 -0.25 -0.6875zm6.121155 2.609375l0.046875 1.234375q1.125 -1.40625 2.953125 -1.40625q3.125 0 3.15625 3.515625l0 6.515625l-1.6875 0l0 -6.515625q-0.015625 -1.078125 -0.5 -1.578125q-0.46875 -0.515625 -1.484375 -0.515625q-0.8125 0 -1.4375 0.4375q-0.609375 0.4375 -0.96875 1.15625l0 7.015625l-1.671875 0l0 -9.859375l1.59375 0zm14.778107 8.890625q-0.984375 1.15625 -2.890625 1.15625q-1.578125 0 -2.40625 -0.921875q-0.8125 -0.921875 -0.828125 -2.703125l0 -6.421875l1.6875 0l0 6.375q0 2.234375 1.828125 2.234375q1.921875 0 2.5625 -1.4375l0 -7.171875l1.6875 0l0 9.859375l-1.609375 0l-0.03125 -0.96875zm7.5033875 -5.296875l2.1875 -3.59375l1.96875 0l-3.21875 4.875l3.328125 4.984375l-1.953125 0l-2.28125 -3.6875l-2.28125 3.6875l-1.953125 0l3.328125 -4.984375l-3.234375 -4.875l1.953125 0l2.15625 3.59375zm21.020905 0.0625q0 1.953125 -0.65625 3.40625q-0.640625 1.453125 -1.84375 2.21875q-1.203125 0.765625 -2.8125 0.765625q-1.5625 0 -2.78125 -0.765625q-1.203125 -0.78125 -1.875 -2.203125q-0.671875 -1.421875 -0.6875 -3.296875l0 -0.96875q0 -1.90625 0.65625 -3.375q0.671875 -1.46875 1.890625 -2.25q1.21875 -0.78125 2.78125 -0.78125q1.59375 0 2.8125 0.78125q1.21875 0.765625 1.859375 2.234375q0.65625 1.453125 0.65625 3.390625l0 0.84375zm-1.734375 -0.859375q0 -2.359375 -0.953125 -3.609375q-0.9375 -1.265625 -2.640625 -1.265625q-1.65625 0 -2.609375 1.265625q-0.953125 1.25 -0.984375 3.5l0 0.96875q0 2.28125 0.953125 3.59375q0.96875 1.3125 2.65625 1.3125q1.6875 0 2.609375 -1.234375q0.9375 -1.234375 0.96875 -3.546875l0 -0.984375zm8.279297 1.15625q-2.25 -0.65625 -3.28125 -1.59375q-1.03125 -0.9375 -1.03125 -2.328125q0 -1.5625 1.25 -2.59375q1.265625 -1.03125 3.265625 -1.03125q1.359375 0 2.4375 0.53125q1.078125 0.53125 1.65625 1.46875q0.59375 0.921875 0.59375 2.03125l-1.765625 0q0 -1.203125 -0.765625 -1.890625q-0.765625 -0.6875 -2.15625 -0.6875q-1.296875 0 -2.015625 0.5625q-0.71875 0.5625 -0.71875 1.578125q0 0.8125 0.6875 1.375q0.6875 0.5625 2.328125 1.03125q1.65625 0.453125 2.59375 1.015625q0.9375 0.5625 1.375 1.3125q0.453125 0.75 0.453125 1.75q0 1.609375 -1.25 2.59375q-1.25 0.96875 -3.359375 0.96875q-1.375 0 -2.5625 -0.515625q-1.171875 -0.53125 -1.8125 -1.4375q-0.640625 -0.921875 -0.640625 -2.078125l1.75 0q0 1.203125 0.890625 1.90625q0.890625 0.6875 2.375 0.6875q1.375 0 2.109375 -0.5625q0.75 -0.5625 0.75 -1.53125q0 -0.984375 -0.6875 -1.515625q-0.6875 -0.53125 -2.46875 -1.046875z" fill-rule="nonzero"/><path fill="#cfe2f3" d="m407.50656 242.85826l132.50833 0l0 63.90956c-66.25415 0 -66.25415 24.350708 -132.50833 10.515076z" fill-rule="evenodd"/><path stroke="#000000" stroke-width="1.0" stroke-linejoin="round" stroke-linecap="butt" d="m407.50656 242.85826l132.50833 0l0 63.90956c-66.25415 0 -66.25415 24.350708 -132.50833 10.515076z" fill-rule="evenodd"/><path fill="#000000" d="m417.0378 266.93616l1.59375 -0.21875q0.078125 1.53125 0.578125 2.109375q0.515625 0.5625 1.421875 0.5625q0.65625 0 1.140625 -0.296875q0.484375 -0.3125 0.65625 -0.828125q0.1875 -0.53125 0.1875 -1.6875l0 -9.203125l1.765625 0l0 9.109375q0 1.671875 -0.40625 2.59375q-0.40625 0.921875 -1.28125 1.40625q-0.875 0.484375 -2.0625 0.484375q-1.75 0 -2.6875 -1.015625q-0.9375 -1.015625 -0.90625 -3.015625zm16.359375 3.796875l0 -1.421875q-1.125 1.640625 -3.0625 1.640625q-0.859375 0 -1.609375 -0.328125q-0.734375 -0.328125 -1.09375 -0.828125q-0.359375 -0.5 -0.5 -1.21875q-0.109375 -0.46875 -0.109375 -1.53125l0 -5.984375l1.640625 0l0 5.359375q0 1.28125 0.109375 1.734375q0.15625 0.640625 0.65625 1.015625q0.5 0.375 1.234375 0.375q0.734375 0 1.375 -0.375q0.65625 -0.390625 0.921875 -1.03125q0.265625 -0.65625 0.265625 -1.890625l0 -5.1875l1.640625 0l0 9.671875l-1.46875 0zm4.0476074 3.703125l0 -13.375l1.484375 0l0 1.25q0.53125 -0.734375 1.1875 -1.09375q0.671875 -0.375 1.625 -0.375q1.234375 0 2.171875 0.640625q0.953125 0.625 1.4375 1.796875q0.484375 1.15625 0.484375 2.546875q0 1.484375 -0.53125 2.671875q-0.53125 1.1875 -1.546875 1.828125q-1.015625 0.625 -2.140625 0.625q-0.8125 0 -1.46875 -0.34375q-0.65625 -0.34375 -1.0625 -0.875l0 4.703125l-1.640625 0zm1.484375 -8.484375q0 1.859375 0.75 2.765625q0.765625 0.890625 1.828125 0.890625q1.09375 0 1.875 -0.921875q0.78125 -0.9375 0.78125 -2.875q0 -1.84375 -0.765625 -2.765625q-0.75 -0.921875 -1.8125 -0.921875q-1.046875 0 -1.859375 0.984375q-0.796875 0.96875 -0.796875 2.84375zm8.813202 8.5l-0.1875 -1.53125q0.546875 0.140625 0.9375 0.140625q0.546875 0 0.875 -0.1875q0.328125 -0.171875 0.546875 -0.5q0.15625 -0.25 0.5 -1.21875q0.046875 -0.140625 0.140625 -0.40625l-3.671875 -9.6875l1.765625 0l2.015625 5.59375q0.390625 1.078125 0.703125 2.25q0.28125 -1.125 0.671875 -2.203125l2.078125 -5.640625l1.640625 0l-3.6875 9.828125q-0.59375 1.609375 -0.921875 2.203125q-0.4375 0.8125 -1.0 1.1875q-0.5625 0.375 -1.34375 0.375q-0.484375 0 -1.0625 -0.203125zm12.984375 -5.1875l0.234375 1.453125q-0.6875 0.140625 -1.234375 0.140625q-0.890625 0 -1.390625 -0.28125q-0.484375 -0.28125 -0.6875 -0.734375q-0.203125 -0.46875 -0.203125 -1.9375l0 -5.578125l-1.203125 0l0 -1.265625l1.203125 0l0 -2.390625l1.625 -0.984375l0 3.375l1.65625 0l0 1.265625l-1.65625 0l0 5.671875q0 0.6875 0.078125 0.890625q0.09375 0.203125 0.28125 0.328125q0.203125 0.109375 0.578125 0.109375q0.265625 0 0.71875 -0.0625zm8.230194 -1.640625l1.6875 0.203125q-0.40625 1.484375 -1.484375 2.3125q-1.078125 0.8125 -2.765625 0.8125q-2.125 0 -3.375 -1.296875q-1.234375 -1.3125 -1.234375 -3.671875q0 -2.453125 1.25 -3.796875q1.265625 -1.34375 3.265625 -1.34375q1.9375 0 3.15625 1.328125q1.234375 1.3125 1.234375 3.703125q0 0.15625 0 0.4375l-7.21875 0q0.09375 1.59375 0.90625 2.453125q0.8125 0.84375 2.015625 0.84375q0.90625 0 1.546875 -0.46875q0.640625 -0.484375 1.015625 -1.515625zm-5.390625 -2.65625l5.40625 0q-0.109375 -1.21875 -0.625 -1.828125q-0.78125 -0.953125 -2.03125 -0.953125q-1.125 0 -1.90625 0.765625q-0.765625 0.75 -0.84375 2.015625zm9.125702 5.765625l0 -9.671875l1.46875 0l0 1.46875q0.5625 -1.03125 1.03125 -1.359375q0.484375 -0.328125 1.0625 -0.328125q0.828125 0 1.6875 0.53125l-0.5625 1.515625q-0.609375 -0.359375 -1.203125 -0.359375q-0.546875 0 -0.96875 0.328125q-0.421875 0.328125 -0.609375 0.890625q-0.28125 0.875 -0.28125 1.921875l0 5.0625l-1.625 0z" fill-rule="nonzero"/><path fill="#000000" d="m417.92844 292.73303l0 -13.359375l1.8125 0l7.015625 10.484375l0 -10.484375l1.6875 0l0 13.359375l-1.8125 0l-7.015625 -10.5l0 10.5l-1.6875 0zm12.676086 -4.84375q0 -2.6875 1.484375 -3.96875q1.25 -1.078125 3.046875 -1.078125q2.0 0 3.265625 1.3125q1.265625 1.296875 1.265625 3.609375q0 1.859375 -0.5625 2.9375q-0.5625 1.0625 -1.640625 1.65625q-1.0625 0.59375 -2.328125 0.59375q-2.03125 0 -3.28125 -1.296875q-1.25 -1.3125 -1.25 -3.765625zm1.6875 0q0 1.859375 0.796875 2.796875q0.8125 0.921875 2.046875 0.921875q1.21875 0 2.03125 -0.921875q0.8125 -0.9375 0.8125 -2.84375q0 -1.796875 -0.8125 -2.71875q-0.8125 -0.921875 -2.03125 -0.921875q-1.234375 0 -2.046875 0.921875q-0.796875 0.90625 -0.796875 2.765625zm12.875702 3.375l0.234375 1.453125q-0.6875 0.140625 -1.234375 0.140625q-0.890625 0 -1.390625 -0.28125q-0.484375 -0.28125 -0.6875 -0.734375q-0.203125 -0.46875 -0.203125 -1.9375l0 -5.578125l-1.203125 0l0 -1.265625l1.203125 0l0 -2.390625l1.625 -0.984375l0 3.375l1.65625 0l0 1.265625l-1.65625 0l0 5.671875q0 0.6875 0.078125 0.890625q0.09375 0.203125 0.28125 0.328125q0.203125 0.109375 0.578125 0.109375q0.265625 0 0.71875 -0.0625zm8.230194 -1.640625l1.6875 0.203125q-0.40625 1.484375 -1.484375 2.3125q-1.078125 0.8125 -2.765625 0.8125q-2.125 0 -3.375 -1.296875q-1.234375 -1.3125 -1.234375 -3.671875q0 -2.453125 1.25 -3.796875q1.265625 -1.34375 3.265625 -1.34375q1.9375 0 3.15625 1.328125q1.234375 1.3125 1.234375 3.703125q0 0.15625 0 0.4375l-7.21875 0q0.09375 1.59375 0.90625 2.453125q0.8125 0.84375 2.015625 0.84375q0.90625 0 1.546875 -0.46875q0.640625 -0.484375 1.015625 -1.515625zm-5.390625 -2.65625l5.40625 0q-0.109375 -1.21875 -0.625 -1.828125q-0.78125 -0.953125 -2.03125 -0.953125q-1.125 0 -1.90625 0.765625q-0.765625 0.75 -0.84375 2.015625zm10.641327 5.765625l-1.515625 0l0 -13.359375l1.640625 0l0 4.765625q1.046875 -1.296875 2.65625 -1.296875q0.890625 0 1.6875 0.359375q0.796875 0.359375 1.3125 1.015625q0.515625 0.640625 0.796875 1.5625q0.296875 0.921875 0.296875 1.96875q0 2.484375 -1.234375 3.84375q-1.21875 1.359375 -2.953125 1.359375q-1.703125 0 -2.6875 -1.4375l0 1.21875zm-0.015625 -4.90625q0 1.734375 0.484375 2.515625q0.765625 1.265625 2.09375 1.265625q1.078125 0 1.859375 -0.9375q0.78125 -0.9375 0.78125 -2.78125q0 -1.890625 -0.75 -2.796875q-0.75 -0.90625 -1.828125 -0.90625q-1.0625 0 -1.859375 0.9375q-0.78125 0.9375 -0.78125 2.703125zm8.281982 0.0625q0 -2.6875 1.484375 -3.96875q1.25 -1.078125 3.046875 -1.078125q2.0 0 3.265625 1.3125q1.265625 1.296875 1.265625 3.609375q0 1.859375 -0.5625 2.9375q-0.5625 1.0625 -1.640625 1.65625q-1.0625 0.59375 -2.328125 0.59375q-2.03125 0 -3.28125 -1.296875q-1.25 -1.3125 -1.25 -3.765625zm1.6875 0q0 1.859375 0.796875 2.796875q0.8125 0.921875 2.046875 0.921875q1.21875 0 2.03125 -0.921875q0.8125 -0.9375 0.8125 -2.84375q0 -1.796875 -0.8125 -2.71875q-0.8125 -0.921875 -2.03125 -0.921875q-1.234375 0 -2.046875 0.921875q-0.796875 0.90625 -0.796875 2.765625zm8.688202 0q0 -2.6875 1.484375 -3.96875q1.25 -1.078125 3.046875 -1.078125q2.0 0 3.265625 1.3125q1.265625 1.296875 1.265625 3.609375q0 1.859375 -0.5625 2.9375q-0.5625 1.0625 -1.640625 1.65625q-1.0625 0.59375 -2.328125 0.59375q-2.03125 0 -3.28125 -1.296875q-1.25 -1.3125 -1.25 -3.765625zm1.6875 0q0 1.859375 0.796875 2.796875q0.8125 0.921875 2.046875 0.921875q1.21875 0 2.03125 -0.921875q0.8125 -0.9375 0.8125 -2.84375q0 -1.796875 -0.8125 -2.71875q-0.8125 -0.921875 -2.03125 -0.921875q-1.234375 0 -2.046875 0.921875q-0.796875 0.90625 -0.796875 2.765625zm9.297607 4.84375l0 -13.359375l1.640625 0l0 7.625l3.890625 -3.9375l2.109375 0l-3.6875 3.59375l4.0625 6.078125l-2.015625 0l-3.203125 -4.953125l-1.15625 1.125l0 3.828125l-1.640625 0z" fill-rule="nonzero"/><path fill="#000000" fill-opacity="0.0" d="m473.76074 242.85826l0 -20.976364" fill-rule="evenodd"/><path stroke="#424242" stroke-width="1.0" stroke-linejoin="round" stroke-linecap="butt" d="m473.76074 242.85826l0 -14.976364" fill-rule="evenodd"/><path fill="#424242" stroke="#424242" stroke-width="1.0" stroke-linecap="butt" d="m475.41248 227.8819l-1.6517334 -4.538101l-1.6517334 4.538101z" fill-rule="evenodd"/></g></svg>