<?xml version="1.0" encoding="UTF-8" standalone="no"?>
<svg
   xmlns:dc="http://purl.org/dc/elements/1.1/"
   xmlns:cc="http://creativecommons.org/ns#"
   xmlns:rdf="http://www.w3.org/1999/02/22-rdf-syntax-ns#"
   xmlns:svg="http://www.w3.org/2000/svg"
   xmlns="http://www.w3.org/2000/svg"
   viewBox="0 0 1417.6 1406.7467"
   height="1406.7467"
   width="1417.6"
   xml:space="preserve"
   id="svg2"
   version="1.1"><metadata
     id="metadata8"><rdf:RDF><cc:Work
         rdf:about=""><dc:format>image/svg+xml</dc:format><dc:type
           rdf:resource="http://purl.org/dc/dcmitype/StillImage" /></cc:Work></rdf:RDF></metadata><defs
     id="defs6"><clipPath
       id="clipPath24"
       clipPathUnits="userSpaceOnUse"><path
         id="path22"
         d="m 6238.56,5719.79 c -184.4,16.21 -370.01,-92.92 -510.65,-221.74 -539.3,-494.01 -1162.82,-1073.06 -1951.38,-1030.78 -0.92,-336.82 106.03,-666.86 347.15,-946.1 281.38,-325.9 665.34,-499.04 1062.21,-527.58 31.52,-4.12 66.99,-7.28 110,-8.69 859.41,-28.18 1578.94,645.67 1607.11,1505.07 12.34,376.44 -159.85,1091.34 -587.63,1215.49 -25.5,7.39 -51.14,12.08 -76.81,14.33 z" /></clipPath><linearGradient
       id="linearGradient30"
       spreadMethod="pad"
       gradientTransform="matrix(3945.18,-129.335,-129.335,-3945.18,3774.91,4417.97)"
       gradientUnits="userSpaceOnUse"
       y2="0"
       x2="1"
       y1="0"
       x1="0"><stop
         id="stop26"
         offset="0"
         style="stop-opacity:1;stop-color:#4766ba" /><stop
         id="stop28"
         offset="1"
         style="stop-opacity:1;stop-color:#78d1b8" /></linearGradient></defs><g
     transform="matrix(1.3333333,0,0,-1.3333333,0,1406.7467)"
     id="g10"><g
       transform="scale(0.1)"
       id="g12"><path
         id="path14"
         style="fill:#100f0d;fill-opacity:1;fill-rule:nonzero;stroke:none"
         d="M 6236.04,10550.6 6032.52,9255.77 c 1867.62,-338.88 3288.74,-1975.96 3288.74,-3939.76 0,-2208.57 -1796.76,-4005.34 -4005.27,-4005.34 -2208.52,0 -4005.28,1796.77 -4005.28,4005.34 0,1963.8 1421.13,3600.88 3288.74,3939.76 L 4395.93,10550.6 C 1901.89,10113.4 0,7933.32 0,5316.01 0,2384.71 2384.75,0 5315.99,0 8247.23,0 10632,2384.71 10632,5316.01 c 0,2617.31 -1901.92,4797.39 -4395.96,5234.59" /><path
         id="path16"
         style="fill:#100f0d;fill-opacity:1;fill-rule:nonzero;stroke:none"
         d="M 6864.32,6082.45 C 6139.46,7184.46 5316.36,8334.78 5316.09,8335.06 l -0.1,-0.32 -0.11,0.32 c -0.27,-0.28 -823.37,-1150.6 -1548.22,-2252.61 -625.22,-950.54 -807.28,-2124.56 -36.11,-2960.67 426.18,-462.07 1001.68,-687.44 1576.15,-688.63 0.76,-0.02 1.45,-0.35 2.2,-0.35 v -0.31 c 1.17,-0.01 2.32,0.16 3.49,0.16 0.57,0 1.14,-0.04 1.71,-0.08 v -0.08 c 0.29,0 0.6,0.02 0.89,0.03 0.29,-0.01 0.59,-0.03 0.88,-0.03 v 0.08 c 0.57,0.04 1.15,0.08 1.72,0.08 1.17,0 2.31,-0.17 3.48,-0.16 v 0.31 c 0.75,0 1.45,0.33 2.2,0.35 574.47,1.19 1149.97,226.56 1576.15,688.63 771.18,836.11 589.13,2010.13 -36.1,2960.67" /><g
         id="g18"><g
           clip-path="url(#clipPath24)"
           id="g20"><path
             id="path32"
             style="fill:url(#linearGradient30);fill-opacity:1;fill-rule:nonzero;stroke:none"
             d="m 6238.56,5719.79 c -184.4,16.21 -370.01,-92.92 -510.65,-221.74 -539.3,-494.01 -1162.82,-1073.06 -1951.38,-1030.78 -0.92,-336.82 106.03,-666.86 347.15,-946.1 281.38,-325.9 665.34,-499.04 1062.21,-527.58 31.52,-4.12 66.99,-7.28 110,-8.69 859.41,-28.18 1578.94,645.67 1607.11,1505.07 12.34,376.44 -159.85,1091.34 -587.63,1215.49 -25.5,7.39 -51.14,12.08 -76.81,14.33" /></g></g></g></g></svg>